<svg xmlns="http://www.w3.org/2000/svg" viewBox="0 0 532.35 560.49"><defs><style>.cls-2{opacity:.33}.cls-3{fill:#c9c9c9}.cls-4{opacity:.25}.cls-5{fill:#9b9b9b}</style></defs><g id="Ñëîé_2" data-name="Ñëîé 2" style="opacity:.7"><g class="cls-2"><path class="cls-3" d="M75.71 292.71a43.4 43.4 0 0 1-6.33-17c-3.87-27.9 24.72-40.83 27.33-76.33 1.22-16.63-3.84-30.22-2-30.67 1.64-.4 7.75 10.08 9.33 22.33 3.26 25.25-15.39 37.55-24.33 73.33a137.54 137.54 0 0 0-4 28.34Z" transform="translate(-44.43 -48.52)"/></g><g class="cls-2"><path class="cls-3" d="M80.38 384c1.05-.29-5.79-23.43-11-59.33-2.42-16.71-4.32-29.76-4.51-47-.37-32.87 5.7-54.64 4.18-55s-8.58 17.42-11.29 39.72c-3.58 29.42 2.27 53.2 9.63 81.95C72.86 365.8 79.43 384.3 80.38 384Z" transform="translate(-44.43 -48.52)"/></g><g class="cls-2"><path class="cls-3" d="M149 496c1.21-2.89-19.72-8.53-34.3-27.19-14.78-18.91-13.79-39.38-15-39.15-1.52.29-2.2 30.78 15.33 51a46.72 46.72 0 0 0 17 12.67c6.86 2.88 16.22 4.62 16.97 2.67Z" transform="translate(-44.43 -48.52)"/></g><g class="cls-4"><path class="cls-3" d="M445.71 240c-.27 0-2.14 28.47-17.67 67.67-3.38 8.54-14.75 36.8-33 61.67-35.38 48.21-85.4 68.38-124.67 83.67-82.52 32.12-147.25 31.43-147 33.67s69.75 4.37 153-21.33c49.63-15.3 85.63-26.41 115.7-57.57C454 343.56 446.21 240.14 445.71 240Z" transform="translate(-44.43 -48.52)"/></g><g class="cls-4"><path class="cls-3" d="M436.38 181c-1.26-.18.21 19.71-11 43.67-28.32 60.57-105.69 78.93-102.67 86.67 1.49 3.8 20.28-.34 26.57-1.72 6.85-1.51 39.73-8.75 61.11-30.44 34.81-35.28 28.22-97.81 25.99-98.18Z" transform="translate(-44.43 -48.52)"/></g><g class="cls-2"><path class="cls-3" d="M163.38 373c-.74-1.06-8 4.13-28 11.33-12.9 4.63-17.53 5.22-21.33 5.33-8.95.26-16.22-2-16.67-.67-.57 1.72 11.16 4.49 14 13.67 1.1 3.54-.07 5 1 6 6.11 5.77 52.92-32.86 51-35.66Z" transform="translate(-44.43 -48.52)"/></g><g class="cls-2"><path class="cls-3" d="M176.88 176.21c1.66.85 4.26-10.17 15-16.83 10.52-6.53 18.54-2.49 57.17-1.67 5.14.11 19.94.42 20-.5 0-.56-5.44-1.25-13.5-2.5-27.31-4.24-31-6.74-44.83-6.83-11.06-.08-16.71 0-22.33 3.83-10.94 7.52-13.48 23.5-11.51 24.5Z" transform="translate(-44.43 -48.52)"/></g><g class="cls-2"><path class="cls-3" d="M62.37 202.3c1.16.25 1.31-6.07 6.17-10.33 9.18-8.07 27-1.64 27.5-3.83.23-1-3.21-2.55-3.83-2.83-6.83-3.13-21.28-6.5-27.83 1.33-4.85 5.79-3.38 15.36-2.01 15.66Z" transform="translate(-44.43 -48.52)"/></g></g><g id="Ñëîé_3" data-name="Ñëîé 3"><path class="cls-5" d="M146.91 495.89a.24.24 0 0 1-.12 0l-9.6-5.4a.25.25 0 0 1 .08-.46l35.9-5.64a.25.25 0 0 1 .28.18.25.25 0 0 1-.14.3l-26.31 11Zm-8.84-5.51 8.86 5 24.3-10.2Z" transform="translate(-44.43 -48.52)"/><path class="cls-5" d="M173.22 484.85a.25.25 0 0 1-.08-.49l44.31-14.23a.25.25 0 0 1 .21.45l-20.79 12.92a.25.25 0 0 1-.12 0l-23.52 1.31Zm42.45-13.62-40.52 13 21.51-1.2Z" transform="translate(-44.43 -48.52)"/><path class="cls-5" d="m237.2 470.78-19.67-.16a.25.25 0 0 1-.08-.49l57.45-19.74a.25.25 0 0 1 .2.46l-37.78 19.9Zm-18.2-.65 18.15.14L272 451.92Z" transform="translate(-44.43 -48.52)"/><path class="cls-5" d="M275 450.88a.25.25 0 0 1-.08-.49l59.6-20.73a.25.25 0 0 1 .24.43L315.19 446a.25.25 0 0 1-.13.05L275 450.88Zm58.34-20.27-56.06 19.5 37.68-4.55Z" transform="translate(-44.43 -48.52)"/><path class="cls-5" d="M334.58 430.15a.25.25 0 0 1-.12-.47L373.11 409a.25.25 0 0 1 .31.38l-16 19a.25.25 0 0 1-.17.09l-22.6 1.62Zm37.62-20.06-36.46 19.48 21.31-1.57Z" transform="translate(-44.43 -48.52)"/><path class="cls-5" d="M373.22 409.5a.25.25 0 0 1-.16-.45l26.66-21.33a.25.25 0 0 1 .36.34l-14.77 20.31a.25.25 0 0 1-.18.1l-11.89 1Zm25.37-20.22L374 408.94l11-.94Z" transform="translate(-44.43 -48.52)"/><path class="cls-5" d="M399.88 388.18a.25.25 0 0 1-.22-.37l22.13-38.63a.25.25 0 0 1 .46.16l-4.53 30.55a.25.25 0 0 1-.14.19L400 388.15Zm21.69-37.6-21.09 36.8 16.77-7.7Z" transform="translate(-44.43 -48.52)"/><path class="cls-5" d="M422 349.55a.25.25 0 0 1-.24-.34l16.56-45.74a.25.25 0 0 1 .28-.16.25.25 0 0 1 .2.25l-.43 30.64a.25.25 0 0 1-.08.18l-16.13 15.1a.25.25 0 0 1-.16.07ZM438.3 305l-15.7 43.36 15.29-14.32ZM131.36 494.22a.25.25 0 0 1-.14 0l-13.49-9a.25.25 0 0 1 .2-.45l19.45 5.23a.25.25 0 0 1 .07.45l-6 3.72a.25.25 0 0 1-.09.05Zm-12.08-8.58 12.08 8 5.33-3.33Z" transform="translate(-44.43 -48.52)"/><path class="cls-5" d="M117.87 485.24a.25.25 0 0 1-.2-.1l-12.76-17.46a.25.25 0 0 1 0-.31.25.25 0 0 1 .31-.05l10.93 6.07a.25.25 0 0 1 .13.18l1.84 11.43a.25.25 0 0 1-.15.27ZM106 468.31 117.46 484l-1.65-10.24Z" transform="translate(-44.43 -48.52)"/><path class="cls-5" d="M105.11 467.79a.25.25 0 0 1-.25-.2l-3.94-20.77a.25.25 0 0 1 .42-.23l6 5.89a.25.25 0 0 1 .07.21l-2.1 14.88a.25.25 0 0 1-.24.21Zm-3.54-20.29 3.5 18.5 1.87-13.26Z" transform="translate(-44.43 -48.52)"/><path class="cls-5" d="M101.17 447a.25.25 0 0 1-.24-.18l-9.34-31.12a.25.25 0 0 1 .46-.2l9.48 16.21a.26.26 0 0 1 0 .13l-.14 14.9a.25.25 0 0 1-.21.25Zm-8.5-29.43 8.27 27.53.12-13.19Z" transform="translate(-44.43 -48.52)"/><path class="cls-5" d="M91.83 415.9a.25.25 0 0 1-.23-.16l-12.08-32.48A.25.25 0 0 1 80 383l10.8 16.92a.24.24 0 0 1 0 .12l1.23 15.6a.25.25 0 0 1-.2.26Zm-11-30.64 10.65 28.62-1.09-13.75Zm66.01 111.13-15.47-2.17a.25.25 0 0 1-.1-.46l6-3.72a.25.25 0 0 1 .26 0l9.52 5.89a.25.25 0 0 1-.13.46Zm-14.76-2.57 13.62 1.91-8.38-5.19Z" transform="translate(-44.43 -48.52)"/><path class="cls-5" d="M146.84 496.39a.25.25 0 0 1-.1-.48l26.38-11.54a.25.25 0 0 1 .27 0l7.41 7.13a.25.25 0 0 1-.14.43l-33.79 4.41Zm26.33-11.49-24.62 10.77 31.53-4.11Z" transform="translate(-44.43 -48.52)"/><path class="cls-5" d="M180.63 492a.25.25 0 0 1-.17-.07l-7.46-7.15a.25.25 0 0 1 .16-.43l23.57-1.35a.26.26 0 0 1 .25.18.25.25 0 0 1-.12.29L180.74 492Zm-6.82-7.16 6.87 6.61 14.93-7.82Z" transform="translate(-44.43 -48.52)"/><path class="cls-5" d="M180.63 492a.25.25 0 0 1-.12-.47l16.11-8.44a.29.29 0 0 1 .15 0l22 3.05a.25.25 0 0 1 0 .5L180.66 492Zm16.16-8.43L182 491.28l34.89-4.93Z" transform="translate(-44.43 -48.52)"/><path class="cls-5" d="M196.74 483.54a.25.25 0 0 1-.13-.46l20.78-12.92a.29.29 0 0 1 .13 0l19.67.16a.25.25 0 0 1 .07.49l-40.46 12.76Zm20.85-12.92-19 11.83 37.05-11.69Z" transform="translate(-44.43 -48.52)"/><path class="cls-5" d="m218.72 486.59-22-3.05a.25.25 0 0 1 0-.49l40.46-12.76a.25.25 0 0 1 .29.12.25.25 0 0 1-.06.31l-18.48 15.81a.25.25 0 0 1-.21.06Zm-20.85-3.4 20.77 2.88 17.46-14.94Z" transform="translate(-44.43 -48.52)"/><path class="cls-5" d="M218.72 486.59a.25.25 0 0 1-.16-.44L237 470.34a.25.25 0 0 1 .34 0l11.25 10.74a.25.25 0 0 1-.13.43l-29.73 5.07Zm18.47-15.73-17.62 15.08 28.35-4.83Z" transform="translate(-44.43 -48.52)"/><path class="cls-5" d="M248.45 481.52a.25.25 0 0 1-.17-.07L237 470.71a.25.25 0 0 1 0-.31.25.25 0 0 1 .29-.11l30 9.25a.25.25 0 0 1-.05.49l-18.78 1.5Zm-10.31-10.44 10.4 9.92 17.37-1.39Z" transform="translate(-44.43 -48.52)"/><path class="cls-5" d="M281.44 486.08h-.1L267.13 480a.25.25 0 0 1 0-.47l13.55-3.25a.25.25 0 0 1 .21 0 .25.25 0 0 1 .1.18l.66 9.31a.25.25 0 0 1-.25.27ZM268 479.84l13.14 5.6-.61-8.61Zm-30.8-9.06a.25.25 0 0 1-.12-.47l37.78-19.9a.25.25 0 0 1 .28 0 .25.25 0 0 1 .07.28l-5.64 14.59a.25.25 0 0 1-.19.16l-32.15 5.3Zm37.31-19.62L238.68 470l30.48-5Z" transform="translate(-44.43 -48.52)"/><path class="cls-5" d="M306.91 460.09h-.07l-31.93-9.21a.25.25 0 0 1 0-.49l40.09-4.85a.25.25 0 0 1 .24.11.25.25 0 0 1 0 .26L307.13 460a.25.25 0 0 1-.22.09Zm-30.68-9.36 30.57 8.82 7.77-13.45Z" transform="translate(-44.43 -48.52)"/><path class="cls-5" d="M315 446a.25.25 0 0 1-.16-.44l19.55-15.89a.24.24 0 0 1 .14-.05l22.6-1.62a.25.25 0 0 1 .11.48L315.13 446Zm19.65-15.89-18.13 14.79 39.14-16.26Z" transform="translate(-44.43 -48.52)"/><path class="cls-5" d="M357.18 428.54a.25.25 0 0 1-.19-.41l16-19a.25.25 0 0 1 .17-.09l11.89-1a.24.24 0 0 1 .26.16.25.25 0 0 1-.09.29l-27.94 20a.25.25 0 0 1-.1.05Zm16.17-19-14.69 17.42 25.57-18.35Z" transform="translate(-44.43 -48.52)"/><path class="cls-5" d="M331.92 448.32 315 446a.25.25 0 0 1-.06-.48l42.15-17.51a.25.25 0 0 1 .25.43l-25.26 19.79a.25.25 0 0 1-.16.09ZM316 445.67l15.87 2.14 23.73-18.59Z" transform="translate(-44.43 -48.52)"/><path class="cls-5" d="M357.18 428.54a.25.25 0 0 1-.15-.45L385 408a.25.25 0 0 1 .36.33l-10.28 17.76a.25.25 0 0 1-.18.12l-17.66 2.29Zm27.14-19.42-26.19 18.79 16.56-2.15Z" transform="translate(-44.43 -48.52)"/><path class="cls-5" d="M385.12 408.49a.25.25 0 0 1-.2-.4l14.77-20.31a.25.25 0 0 1 .26-.09.25.25 0 0 1 .19.21l1.71 12.65a.25.25 0 0 1-.14.26l-16.48 7.66Zm14.6-19.91-13.83 19 15.44-7.18Zm17.77-8.48h-.09a.25.25 0 0 1-.16-.27l4.53-30.55a.25.25 0 0 1 .42-.14l9.39 9.51a.25.25 0 0 1 0 .31L417.7 380a.25.25 0 0 1-.21.1Zm4.7-30.27-4.29 28.94 13.18-19.94Zm-132.78 123a.25.25 0 0 1-.15-.45l17.5-12.74a.25.25 0 0 1 .18 0l13.89 1.89a.25.25 0 0 1 0 .48l-31.39 10.85ZM307 460.1l-16.07 11.7 28.82-10Zm24.92-11.78a.25.25 0 0 1-.15-.45L357 428.09a.25.25 0 0 1 .4.23L354.67 447a.25.25 0 0 1-.24.21l-22.51 1.08Zm24.92-19.45-24.15 18.92 21.52-1Z" transform="translate(-44.43 -48.52)"/><path class="cls-5" d="M395.76 416.1a.25.25 0 0 1-.23-.34l5.84-15.27a.25.25 0 0 1 .23-.16l12.76.38a.25.25 0 0 1 .15.45L395.91 416a.25.25 0 0 1-.15.1Zm6-15.27-5.45 14.25 17.35-13.9Zm-264.45 89.66a.25.25 0 0 1-.18-.42l12.28-13.5a.25.25 0 0 1 .26-.07l23.62 7.85a.25.25 0 0 1 0 .48l-35.9 5.64ZM149.67 477 138 489.89l34.19-5.37Zm67.85-6.38h-.05L187.81 464a.25.25 0 0 1 0-.48l47.08-13.7a.25.25 0 0 1 .26.4l-17.41 20.33a.25.25 0 0 1-.22.07Zm-28.66-6.91 28.57 6.38 16.77-19.57ZM116 473.86a.25.25 0 0 1-.25-.23l-.94-10.76a.25.25 0 0 1 .1-.23.25.25 0 0 1 .25 0l19.43 8.77a.25.25 0 0 1 .14.27.25.25 0 0 1-.22.21l-18.5 2Zm-.65-10.6.88 10.08 17.33-1.87Zm2.29-70.09h-.11L105 386.9a.25.25 0 0 1 .07-.47l27.42-4.43a.25.25 0 0 1 .27.15.25.25 0 0 1-.09.3l-14.89 10.68a.25.25 0 0 1-.14.04ZM106 386.8l11.65 5.83 13.9-10Z" transform="translate(-44.43 -48.52)"/><path class="cls-5" d="M97.71 390.48a.25.25 0 0 1-.21-.11l-5.16-7.52a.25.25 0 0 1 .28-.38l12.61 4a.25.25 0 0 1 0 .46l-7.45 3.55Zm-4.55-7.31 4.63 6.75 6.68-3.19Zm42.08 7.83h-.08a.25.25 0 0 1-.16-.16l-2.71-8.49a.25.25 0 0 1 .19-.32l21.28-4.26a.25.25 0 0 1 .19.45l-18.57 12.75a.25.25 0 0 1-.14.03Zm-2.39-8.55 2.52 7.9 17.29-11.87Z" transform="translate(-44.43 -48.52)"/><path class="cls-5" d="M127.09 401.3a.25.25 0 0 1-.16-.06l-9.45-8.12a.25.25 0 0 1 .13-.44l17.6-2.19a.25.25 0 0 1 .23.4l-8.15 10.32a.25.25 0 0 1-.17.09Zm-8.86-8.2 8.82 7.59 7.61-9.63Z" transform="translate(-44.43 -48.52)"/><path class="cls-5" d="m117.64 393.17-19.93-2.69a.25.25 0 0 1-.07-.47l7.45-3.55a.25.25 0 0 1 .22 0l12.48 6.25a.25.25 0 0 1-.11.47Zm-19.07-3.08 17.61 2.38-11-5.52Z" transform="translate(-44.43 -48.52)"/><path class="cls-5" d="M112.49 402.1a.25.25 0 0 1-.15-.05l-14.78-11.62a.25.25 0 0 1-.08-.29.26.26 0 0 1 .26-.15l19.93 2.69a.25.25 0 0 1 .18.37l-5.14 8.95a.25.25 0 0 1-.17.12Zm-13.9-11.5 13.83 10.88 4.82-8.36Zm55.23-12.37a.25.25 0 0 1-.1-.48l19.07-8a.25.25 0 0 1 .3.38l-5.59 7.78a.25.25 0 0 1-.2.1l-13.48.23Zm18.35-7.69-17.06 7.17 12.06-.21Z" transform="translate(-44.43 -48.52)"/><path class="cls-5" d="M151.38 395.44h-.07L135.18 391a.25.25 0 0 1-.08-.45l18.57-12.75a.25.25 0 0 1 .27 0 .25.25 0 0 1 .12.25l-2.44 17.21a.25.25 0 0 1-.25.21Zm-15.55-4.81 15.35 4.24 2.32-16.36Zm-12.23 21.6a.25.25 0 0 1-.17-.07L112.32 402a.25.25 0 0 1 .15-.43l14.6-.81a.27.27 0 0 1 .21.1.25.25 0 0 1 0 .23l-3.49 10.93a.25.25 0 0 1-.17.17Zm-10.5-10.16 10.38 9.46 3.26-10.22Zm-10.93-40.5a.25.25 0 0 1-.19-.08.25.25 0 0 1-.06-.2l1.05-7.47a.25.25 0 0 1 .42-.15l7.92 7.38a.25.25 0 0 1-.17.43l-9 .09Zm1.23-7.21-.94 6.71 8.06-.08Z" transform="translate(-44.43 -48.52)"/><path class="cls-5" d="M93 365.44a.25.25 0 0 1-.25-.29l1.25-8.7a.25.25 0 0 1 .14-.19.25.25 0 0 1 .24 0l7.9 4.84a.25.25 0 0 1 0 .44l-9.13 3.87Zm1.42-8.54-1.11 7.89 8.27-3.51Z" transform="translate(-44.43 -48.52)"/><path class="cls-5" d="M88.9 377.55a.25.25 0 0 1-.22-.22L87 364.46a.25.25 0 0 1 .07-.21.27.27 0 0 1 .21-.07l5.77.76a.25.25 0 0 1 .2.33l-4.15 12.11a.25.25 0 0 1-.2.17Zm-1.33-12.83L89 376.2l3.7-10.8Zm23.58-3.24a.24.24 0 0 1-.17-.07l-7.92-7.41a.25.25 0 0 1-.06-.29.26.26 0 0 1 .26-.14l17.61 2.3a.25.25 0 0 1 .08.47l-9.69 5.08ZM104 354.2l7.22 6.72 8.78-4.62Z" transform="translate(-44.43 -48.52)"/><path class="cls-5" d="m135.84 358.36-15-2a.25.25 0 0 1-.07-.48l8.13-3.51a.25.25 0 0 1 .25 0l6.87 5.47a.25.25 0 0 1-.16.45ZM121.77 356l13.2 1.72-6-4.82Z" transform="translate(-44.43 -48.52)"/><path class="cls-5" d="m152.8 360.58-17-2.21a.25.25 0 0 1 0-.49l12.73-2.88a.25.25 0 0 1 .25.09l4.21 5.13a.25.25 0 0 1-.19.41ZM137.25 358l15 2-3.71-4.52Z" transform="translate(-44.43 -48.52)"/><path class="cls-5" d="m170.78 362.92-18-2.35a.25.25 0 0 1 0-.48l14-4.79a.25.25 0 0 1 .3.12l3.94 7.14a.25.25 0 0 1-.22.37Zm-16.89-2.71 16.43 2.15-3.6-6.52Z" transform="translate(-44.43 -48.52)"/><path class="cls-5" d="M170.78 362.92a.25.25 0 0 1-.22-.13l-3.94-7.14a.25.25 0 0 1 0-.26.26.26 0 0 1 .24-.11l27.78 3.61a.25.25 0 0 1 0 .5l-23.84 3.52Zm-3.48-7.08 3.62 6.55 21.89-3.24Zm-67.83-5.52a.25.25 0 0 1-.19-.09l-8.7-10.51a.25.25 0 0 1 0-.28.26.26 0 0 1 .25-.13l10 1.3a.25.25 0 0 1 .21.28l-1.3 9.21a.25.25 0 0 1-.18.21Zm-8.1-10.43 7.93 9.58 1.18-8.4Z" transform="translate(-44.43 -48.52)"/><path class="cls-5" d="M84.21 351.62a.25.25 0 0 1-.22-.37l6.56-11.81a.25.25 0 0 1 .2-.13.24.24 0 0 1 .22.09l8.7 10.51a.25.25 0 0 1-.17.41l-15.25 1.3Zm6.6-11.62-6.15 11.08L99 349.86Zm19.55 7a.25.25 0 0 1-.13 0l-9.6-5.94a.25.25 0 0 1-.12-.22.25.25 0 0 1 .13-.21l14.43-8.28a.25.25 0 0 1 .36.3l-4.83 14.22a.25.25 0 0 1-.15.16Zm-9.11-6.18 9 5.55 4.52-13.3Z" transform="translate(-44.43 -48.52)"/><path class="cls-5" d="M110.36 347a.25.25 0 0 1-.24-.33l4.88-14.18a.25.25 0 0 1 .13-.15.26.26 0 0 1 .19 0l19.8 7.13a.25.25 0 0 1 0 .48L110.43 347Zm5-14.15-4.6 13.53 23.43-6.75Z" transform="translate(-44.43 -48.52)"/><path class="cls-5" d="M147.18 349.67a.25.25 0 0 1-.16-.05l-12.2-9.72a.25.25 0 0 1-.06-.31.25.25 0 0 1 .29-.12l19.87 6.13a.25.25 0 0 1 0 .47l-7.68 3.59Zm-11-9.34 11 8.8 6.95-3.25Zm-32.95 13.78a.25.25 0 0 1-.23-.11l-3.76-3.79a.25.25 0 0 1 .11-.42l10.89-3.27a.25.25 0 0 1 .25.42L103.4 354a.25.25 0 0 1-.17.11Zm-3.29-3.92 3.29 3.31 6.24-6.18Z" transform="translate(-44.43 -48.52)"/><path class="cls-5" d="M120.84 356.4a.25.25 0 0 1-.17-.06L110.19 347a.25.25 0 0 1-.05-.31.25.25 0 0 1 .29-.12l18.57 5.84a.25.25 0 0 1 0 .47l-8.13 3.51Zm-9.45-9 9.5 8.48 7.36-3.18Z" transform="translate(-44.43 -48.52)"/><path class="cls-5" d="M129 352.89a.25.25 0 0 1-.23-.36l6-12.94a.25.25 0 0 1 .17-.14.24.24 0 0 1 .21 0l12.2 9.72a.25.25 0 0 1-.11.44L129 352.89Zm6.11-12.8-5.68 12.22 17.2-3ZM84.3 363.21a.24.24 0 0 1-.12 0A.25.25 0 0 1 84 363v-11.62a.25.25 0 0 1 .36-.22l10.06 5.11a.25.25 0 0 1 .14.21.25.25 0 0 1-.11.22l-10 6.47a.25.25 0 0 1-.15.04Zm.17-11.43.08 10.72 9.23-6Zm82.37 4.01a.25.25 0 0 1-.16-.06l-12-9.7a.25.25 0 0 1 .23-.43l17.53 5.58a.25.25 0 0 1 .07.44l-5.51 4.12a.25.25 0 0 1-.16.05ZM156 346.48l10.8 8.75 5-3.71Zm282.57-42.67a.25.25 0 0 1-.21-.11l-13.87-21a.25.25 0 0 1 0-.2.25.25 0 0 1 .13-.16l19.51-10.11a.25.25 0 0 1 .26 0 .25.25 0 0 1 .1.25l-5.64 31.07a.25.25 0 0 1-.2.2Zm-13.51-21.12 13.38 20.21 5.44-30ZM127.73 424.3l-15-2a.25.25 0 0 1-.13-.44l11.33-9.67a.24.24 0 0 1 .23 0 .25.25 0 0 1 .17.17L128 424a.25.25 0 0 1-.24.33Zm-14.43-2.43 14.07 1.88-3.45-10.94ZM275 450.88h-.11L256.92 442a.25.25 0 0 1 0-.44l31.42-18a.25.25 0 0 1 .3 0 .25.25 0 0 1 .05.29l-13.47 26.9a.25.25 0 0 1-.22.13Zm-17.42-9.16 17.3 8.58 13-25.93Z" transform="translate(-44.43 -48.52)"/><path class="cls-5" d="M334.58 430.15 288.42 424a.25.25 0 0 1 0-.49l39.54-11.18a.25.25 0 0 1 .3.15l6.59 17.35a.25.25 0 0 1-.23.34Zm-44.9-6.51 44.52 6-6.36-16.74Z" transform="translate(-44.43 -48.52)"/><path class="cls-5" d="M288.45 424a.25.25 0 0 1-.19-.08l-25.05-28.46a.25.25 0 0 1 0-.28.25.25 0 0 1 .25-.13l28.71 3.28a.25.25 0 0 1 .17.1.25.25 0 0 1 0 .19l-3.66 25.18a.25.25 0 0 1-.18.2ZM264 395.6l24.27 27.57 3.55-24.39Zm64 17.2a.25.25 0 0 1-.18-.07.25.25 0 0 1-.07-.19l1.62-25a.25.25 0 0 1 .36-.21L373.34 409a.25.25 0 0 1-.09.47L328 412.8Zm1.84-24.8-1.58 24.29 44-3.21Z" transform="translate(-44.43 -48.52)"/><path class="cls-5" d="m399.88 388.18-70.27-.33a.25.25 0 0 1-.14-.46l34.37-22.95a.25.25 0 0 1 .27 0L400 387.72a.25.25 0 0 1-.14.46Zm-69.45-.83 68.6.32L364 364.95Z" transform="translate(-44.43 -48.52)"/><path class="cls-5" d="M364 364.9a.25.25 0 0 1-.21-.38l19.71-31.63a.25.25 0 0 1 .31-.1l38.33 16.27a.25.25 0 0 1 0 .47l-58 15.35Zm19.8-31.56-19.26 30.91 56.72-15ZM328 412.8h-.09l-35.88-14a.25.25 0 0 1 0-.47l37.5-11a.25.25 0 0 1 .32.26l-1.62 25a.25.25 0 0 1-.25.23Zm-35.1-14.22 34.88 13.61 1.58-24.26Z" transform="translate(-44.43 -48.52)"/><path class="cls-5" d="M329.61 387.85a.25.25 0 0 1-.23-.15l-18.66-42.14a.25.25 0 0 1 .26-.35l35.34 4.53a.25.25 0 0 1 .2.35l-16.68 37.61a.25.25 0 0 1-.23.15Zm-18.26-42.09L329.61 387l16.31-36.79Zm72.33-12.49a.25.25 0 0 1-.23-.35l15.35-36.44a.25.25 0 0 1 .27-.15l39.54 7a.25.25 0 0 1 .07.47l-54.88 29.44a.25.25 0 0 1-.12.03Zm15.5-36.41-15 35.61 53.63-28.79Z" transform="translate(-44.43 -48.52)"/><path class="cls-5" d="M364 364.9a.25.25 0 0 1-.16-.06l-17.7-14.67a.25.25 0 0 1 .06-.42l37.4-17a.25.25 0 0 1 .29.06.25.25 0 0 1 0 .3l-19.71 31.63a.25.25 0 0 1-.17.12ZM346.75 350l17.17 14.23L383 333.59Z" transform="translate(-44.43 -48.52)"/><path class="cls-5" d="M383.68 333.27a.25.25 0 0 1-.19-.09l-21.59-25a.25.25 0 0 1 .12-.4L399 296.34a.26.26 0 0 1 .26.07.25.25 0 0 1 0 .27l-15.35 36.44a.25.25 0 0 1-.19.15Zm-21.15-25.1 21.07 24.38 15-35.58Z" transform="translate(-44.43 -48.52)"/><path class="cls-5" d="M399 296.83a.25.25 0 0 1-.2-.1l-20.2-25.83a.25.25 0 0 1 0-.22.25.25 0 0 1 .15-.17l33.16-13.1a.25.25 0 0 1 .33.31l-12.92 38.94a.25.25 0 0 1-.19.17Zm-19.83-26 19.74 25.21 12.61-38Zm65.04 1.91a.25.25 0 0 1-.17-.07l-16.67-16.08a.25.25 0 0 1 0-.38L449 239a.25.25 0 0 1 .28 0 .25.25 0 0 1 .12.25l-4.94 33.29a.25.25 0 0 1-.17.2Zm-16.29-16.32L444 272l4.78-32.18Z" transform="translate(-44.43 -48.52)"/><path class="cls-5" d="M362.1 308.3a.25.25 0 0 1-.22-.18l-11.31-37.62a.25.25 0 0 1 0-.22.24.24 0 0 1 .2-.1l28 .32a.25.25 0 0 1 .23.35l-16.7 37.3a.25.25 0 0 1-.2.15Zm-11-37.62 11 36.65L378.41 271ZM292.11 398.8a.25.25 0 0 1-.22-.13l-21.61-37.74a.25.25 0 0 1 0-.21.25.25 0 0 1 .15-.15l40.45-15.36a.25.25 0 0 1 .32.32l-18.83 53.1a.25.25 0 0 1-.21.17Zm-21.25-37.86 21.2 37 18.47-52.07Z" transform="translate(-44.43 -48.52)"/><path class="cls-5" d="M346.28 350.23a.25.25 0 0 1-.23-.15l-15-36a.25.25 0 0 1 .18-.34l30.86-6a.25.25 0 0 1 .24.08.25.25 0 0 1 0 .25L346.52 350a.25.25 0 0 1-.23.16Zm-14.7-36 14.69 35.12 15.43-40.92Z" transform="translate(-44.43 -48.52)"/><path class="cls-5" d="M331.23 314.25a.25.25 0 0 1-.19-.09l-27.62-32.85a.25.25 0 0 1 .14-.4l47.19-10.72a.24.24 0 0 1 .25.09.25.25 0 0 1 0 .26l-19.54 43.56a.25.25 0 0 1-.19.15Zm-27.16-32.95 27.1 32.23 19.21-42.75Z" transform="translate(-44.43 -48.52)"/><path class="cls-5" d="M350.81 270.68a.25.25 0 0 1-.2-.1l-26.69-36.34a.25.25 0 0 1 .19-.4l46.34-2.21a.22.22 0 0 1 .22.11.25.25 0 0 1 0 .25L351 270.54a.25.25 0 0 1-.2.14Zm-26.21-36.37L350.77 270 370 232.15ZM310.95 345.7h-.06a.25.25 0 0 1-.19-.21l-7.33-64.31a.25.25 0 0 1 .44-.19l27.62 32.85a.25.25 0 0 1 0 .3l-20.29 31.46a.25.25 0 0 1-.19.1Zm-7-63.76 7.16 62.79L330.92 314Z" transform="translate(-44.43 -48.52)"/><path class="cls-5" d="M310.95 345.7a.25.25 0 0 1-.12 0l-37.42-20.21a.25.25 0 0 1-.09-.36L303.41 281a.25.25 0 0 1 .45.11l7.33 64.31a.25.25 0 0 1-.25.28Zm-37.06-20.54L310.64 345l-7.2-63.16Z" transform="translate(-44.43 -48.52)"/><path class="cls-5" d="M303.62 281.4a.25.25 0 0 1-.18-.08l-25.72-27.89a.25.25 0 0 1 .09-.4L324 233.86a.25.25 0 0 1 .33.33l-20.5 47.06a.25.25 0 0 1-.19.15Zm-25.29-28 25.21 27.35 20.1-46.14ZM263.4 395.52a.25.25 0 0 1-.15 0l-28.54-21a.25.25 0 0 1 .06-.44l35.65-13.43a.25.25 0 0 1 .33.29l-7.1 34.46a.25.25 0 0 1-.16.18Zm-28-21.21 27.86 20.53 6.93-33.64Z" transform="translate(-44.43 -48.52)"/><path class="cls-5" d="M257 442a.25.25 0 0 1-.19-.08l-30.08-34.4a.25.25 0 0 1 .11-.4L263.32 395a.24.24 0 0 1 .24 0 .25.25 0 0 1 .09.23l-6.37 46.46a.25.25 0 0 1-.18.2Zm-29.65-34.53 29.47 33.71 6.24-45.52ZM149.6 477a.25.25 0 0 1-.19-.09l-17.54-20.68a.25.25 0 0 1 0-.29.26.26 0 0 1 .26-.12l39.14 7.92a.25.25 0 0 1 .08.46L149.72 477a.25.25 0 0 1-.12 0Zm-16.88-20.54 16.93 20 20.86-12.31Z" transform="translate(-44.43 -48.52)"/><path class="cls-5" d="M115.1 463.1a.25.25 0 0 1-.15-.05.25.25 0 0 1-.09-.23l2.81-19.82a.25.25 0 0 1 .16-.2.25.25 0 0 1 .25.05l14.15 13.09a.25.25 0 0 1-.08.42l-17 6.78Zm3-19.61-2.68 19L131.6 456Z" transform="translate(-44.43 -48.52)"/><path class="cls-5" d="m171.2 464.25-39.2-7.93a.25.25 0 0 1-.11-.44l26.47-21.25a.25.25 0 0 1 .22 0 .25.25 0 0 1 .17.14l12.67 29.17a.25.25 0 0 1-.23.35Zm-38.57-8.31 38.15 7.72-12.35-28.43Zm102.31-5.64a.25.25 0 0 1-.25-.2l-8-42.72a.25.25 0 0 1 .14-.27.25.25 0 0 1 .3.06l30.08 34.4a.25.25 0 0 1-.1.4L235 450.28Zm-7.57-42.11 7.77 41.52 21.48-8.08Z" transform="translate(-44.43 -48.52)"/><path class="cls-5" d="M187.86 464a.25.25 0 0 1-.16-.06.25.25 0 0 1-.08-.22l3.88-27.09a.25.25 0 0 1 .11-.18.26.26 0 0 1 .21 0L235 449.81a.25.25 0 0 1 0 .48L187.93 464Zm4.08-27-3.78 26.42L234.07 450Zm-74.03 6.24a.25.25 0 0 1-.22-.37l9.82-18.94a.25.25 0 0 1 .3-.12l30.8 10.77a.25.25 0 0 1 0 .48L118 443.23Zm9.94-18.88-9.48 18.28 39.21-7.88Zm99.1-16.78a.25.25 0 0 1-.18-.08L208 388.16a.25.25 0 0 1-.07-.21.25.25 0 0 1 .13-.18L234.74 374a.25.25 0 0 1 .36.28l-7.91 33.09a.25.25 0 0 1-.18.18Zm-18.37-19.53 18.23 18.78 7.67-32.12Zm61.92-26.99a.25.25 0 0 1-.13 0l-30.92-19.37a.25.25 0 0 1 0-.44l34-16.19a.25.25 0 0 1 .36.25l-3 35.56a.25.25 0 0 1-.14.2Zm-30.41-19.59 30.19 18.91 3-34.72Zm198.06-7.02h-.08a.25.25 0 0 1-.17-.24l.43-30.64a.25.25 0 0 1 .46-.13l10.1 15.31a.25.25 0 0 1 0 .28l-10.52 15.33a.25.25 0 0 1-.22.09Zm.67-30.07-.4 29 10-14.51Z" transform="translate(-44.43 -48.52)"/><path class="cls-5" d="m471.78 323.31-23.11-4.19a.25.25 0 0 1-.14-.41l9.81-10.76a.25.25 0 0 1 .18-.08.25.25 0 0 1 .19.08L472 322.9a.25.25 0 0 1-.19.42Zm-22.62-4.61 22 4-12.63-14.2Zm45.31 71.37a.25.25 0 0 1-.24-.17l-8.94-26.9a.25.25 0 0 1 0-.15l7.9-28.54a.26.26 0 0 1 .27-.18.25.25 0 0 1 .22.24l1 55.43a.25.25 0 0 1-.21.25Zm-8.68-27.15 8.4 25.26-1-52.07Z" transform="translate(-44.43 -48.52)"/><path class="cls-5" d="M495 434.95a.25.25 0 0 1-.24-.18L488 410.7a.24.24 0 0 1 0-.14l6.23-20.81a.25.25 0 0 1 .49.07l.53 44.88a.25.25 0 0 1-.21.25Zm-6.5-24.32 6.23 22.17-.49-41.35Z" transform="translate(-44.43 -48.52)"/><path class="cls-5" d="M508.58 486.24a.25.25 0 0 1-.16-.06L494.15 474a.25.25 0 0 1-.09-.2l.69-39.14a.25.25 0 0 1 .22-.24.24.24 0 0 1 .27.18l13.58 51.29a.25.25 0 0 1-.24.31Zm-14-12.51 13.58 11.55-12.94-48.78Z" transform="translate(-44.43 -48.52)"/><path class="cls-5" d="M541.93 517.38 526 515.19a.25.25 0 0 1-.18-.12l-17.5-29a.25.25 0 0 1 .38-.31l33.34 31.14a.25.25 0 0 1-.17.43Zm-15.69-2.67 14.95 2.06-31.46-29.37Zm-283.67-11.63a.25.25 0 0 1-.18-.09l-10.29-12.86a.25.25 0 0 1 0-.3.25.25 0 0 1 .29-.09l16.89 6.44a.25.25 0 0 1 .09.41l-6.6 6.42a.25.25 0 0 1-.2.07Zm-9.52-12.55 9.55 11.93 6.12-6Z" transform="translate(-44.43 -48.52)"/><path class="cls-5" d="M253.65 537.25a.25.25 0 0 1-.24-.17l-11.07-34.17a.25.25 0 0 1 .06-.26l6.6-6.42a.25.25 0 0 1 .26-.06.25.25 0 0 1 .16.21l4.47 40.62a.25.25 0 0 1-.2.27Zm-10.79-34.35 10.27 31.69-4.13-37.65Z" transform="translate(-44.43 -48.52)"/><path class="cls-5" d="M265.13 575.74a.25.25 0 0 1-.22-.18c-3.42-12.27-8.35-29.63-10.45-36.15a6.43 6.43 0 0 1-1-2.38c0-.26-.07-.58.21-.64s.34-.07 1.29 2.84c4 6.34 18.65 19.35 18.82 19.5a.25.25 0 0 1 .06.3l-8.42 16.57a.25.25 0 0 1-.29.14Zm-9.72-34.93c.89 2.85 2.27 7.51 4.46 15.14 2.36 8.23 4.69 16.56 5.33 18.86l8-15.83c-1.5-1.38-13.05-11.76-17.79-18.17Z" transform="translate(-44.43 -48.52)"/><path class="cls-5" d="M269.55 609a.25.25 0 0 1-.2-.21l-4.43-33.27a.25.25 0 0 1 .43-.2L279.4 591a.25.25 0 0 1 0 .29l-9.66 17.61a.25.25 0 0 1-.19.1Zm-4.07-32.75L269.7 608l9.21-16.78Zm294.19-34.5a.25.25 0 0 1-.2-.1l-17.75-24.37a.25.25 0 0 1 .33-.36l34.6 20.45a.25.25 0 0 1-.07.46l-16.85 3.92ZM542.84 518l16.94 23.26 16.08-3.74Zm-289.19 19.25a.25.25 0 0 1-.21-.22l-4.47-40.59a.25.25 0 0 1 .45-.17L262.81 516a.25.25 0 0 1 0 .24l-9 20.9a.25.25 0 0 1-.16.11Zm-4.11-39.87 4.25 38.62 8.52-19.9Z" transform="translate(-44.43 -48.52)"/><path class="cls-5" d="M273.55 559.17a.25.25 0 0 1-.24-.19l-10.95-42.82a.25.25 0 0 1 .09-.26.25.25 0 0 1 .28 0l20.17 12.29a.25.25 0 0 1 .11.29L273.79 559a.25.25 0 0 1-.24.17ZM263 516.63 273.57 558l8.91-29.49Z" transform="translate(-44.43 -48.52)"/><path class="cls-5" d="M279.21 591.4h-.07a.25.25 0 0 1-.18-.2L273.3 559a.25.25 0 0 1 .36-.27l23.6 12.14a.25.25 0 0 1 .07.39l-17.94 20.1a.25.25 0 0 1-.18.04Zm-5.33-32 5.49 31.23 17.38-19.47Z" transform="translate(-44.43 -48.52)"/><path class="cls-5" d="M297.15 571.3a.25.25 0 0 1-.21-.17l-14.37-42.67a.25.25 0 0 1 .35-.3l30.64 16a.25.25 0 0 1 .1.35l-16.26 26.72a.25.25 0 0 1-.25.07Zm-13.94-42.41 14 41.58 15.84-26Z" transform="translate(-44.43 -48.52)"/><path class="cls-5" d="M282.77 528.63a.26.26 0 0 1-.12 0 .25.25 0 0 1-.12-.19l-2.89-25.9a.25.25 0 0 1 .11-.23.25.25 0 0 1 .26 0l28.26 14.4a.25.25 0 0 1 0 .45l-25.37 11.5Zm-2.59-25.71L283 528l24.58-11.14Zm14 94.94a.25.25 0 0 1-.25-.28l3-26.56a.25.25 0 0 1 .33-.21l21.46 8a.25.25 0 0 1 .16.2.25.25 0 0 1-.1.24l-24.43 18.59a.25.25 0 0 1-.17.02Zm3.18-26.46-2.87 25.66 23.61-18Zm197.11-181.33a.25.25 0 0 1-.14 0l-15.56-10.35a.25.25 0 0 1-.09-.3l6.62-16.54a.23.23 0 0 1 .24-.16.25.25 0 0 1 .23.17l8.94 26.89a.25.25 0 0 1-.09.28.25.25 0 0 1-.15.01Zm-15.25-10.69 14.78 9.83-8.49-25.55Z" transform="translate(-44.43 -48.52)"/><path class="cls-5" d="M488.24 410.88h-.09L475 405.49a.25.25 0 0 1-.15-.27l3.86-25.79a.25.25 0 0 1 .23-.21.23.23 0 0 1 .26.18l9.33 31.16a.25.25 0 0 1-.24.32Zm-12.91-5.78 12.52 5.1-8.85-29.59Z" transform="translate(-44.43 -48.52)"/><path class="cls-5" d="M482 452.73h-.1a.25.25 0 0 1-.15-.27l6.25-41.87a.25.25 0 0 1 .23-.21.23.23 0 0 1 .26.18l6.76 24.07a.24.24 0 0 1 0 .21l-13 17.78a.25.25 0 0 1-.25.11Zm6.35-40.91-6 39.69 12.37-16.86Z" transform="translate(-44.43 -48.52)"/><path class="cls-5" d="M484.5 487.64h-.07a.25.25 0 0 1-.18-.22l-2.53-34.91a.25.25 0 0 1 .18-.26.25.25 0 0 1 .29.11l12.35 21.36a.25.25 0 0 1 0 .27l-9.81 13.55a.25.25 0 0 1-.23.1Zm-2.21-34.1 2.41 33.14 9.3-12.86Z" transform="translate(-44.43 -48.52)"/><path class="cls-5" d="M501.61 511.82a.25.25 0 0 1-.24-.2l-7.3-37.73a.25.25 0 0 1 .12-.26.25.25 0 0 1 .29 0l14.27 12.15a.25.25 0 0 1 .08.26l-7 25.58a.25.25 0 0 1-.22.2Zm-6.92-37.33 7 36 6.65-24.39Z" transform="translate(-44.43 -48.52)"/><path class="cls-5" d="M491.94 526.07a.25.25 0 0 1-.2-.2l-7.45-38.43a.25.25 0 0 1 .45-.19l17.12 24.18a.25.25 0 0 1 0 .29L492.15 526a.25.25 0 0 1-.21.07Zm-7-37.59 7.11 36.7 9.24-13.61Z" transform="translate(-44.43 -48.52)"/><path class="cls-5" d="M522.84 536.61a.25.25 0 0 1-.19-.09l-21.23-24.79a.25.25 0 0 1 0-.28.26.26 0 0 1 .25-.13l24.47 3.37a.25.25 0 0 1 .21.29l-3.24 21.42a.25.25 0 0 1-.18.2Zm-20.61-24.71 20.45 23.88 3.12-20.63Z" transform="translate(-44.43 -48.52)"/><path class="cls-5" d="m559.67 541.75-36.83-5.13a.25.25 0 0 1-.21-.29l3.24-21.42a.25.25 0 0 1 .16-.2.25.25 0 0 1 .25 0l33.59 26.55a.25.25 0 0 1-.16.45Zm-36.54-5.59 35.67 5-32.53-25.71Z" transform="translate(-44.43 -48.52)"/><path class="cls-5" d="M543.88 559.61h-.11l-39.64-20.39a.25.25 0 0 1 .08-.47l18.6-2.61a.27.27 0 0 1 .22.08l21 23a.25.25 0 0 1 0 .32.25.25 0 0 1-.15.07Zm-38.83-20.5 37.7 19.39-20-21.87Zm-33.2-167.59a.24.24 0 0 1-.14 0 .25.25 0 0 1-.11-.25l4.82-32.27a.25.25 0 0 1 .22-.21.26.26 0 0 1 .26.16l8.86 23.87a.25.25 0 0 1-.1.3L472 371.48a.25.25 0 0 1-.15.04Zm4.92-31.47-4.59 30.72 13-8Zm-10.19 87.49a.25.25 0 0 1-.22-.2l-8-40a.25.25 0 0 1 .43-.22l16.44 18a.25.25 0 0 1 0 .26l-8.47 22a.25.25 0 0 1-.18.16ZM459 388.09l7.63 38.31 8.1-21.08Zm4.35 81.81h-.11a.25.25 0 0 1-.14-.24l1.21-28.85a.25.25 0 0 1 .39-.2l17.4 11.68a.25.25 0 0 1 0 .39l-18.61 17.17a.25.25 0 0 1-.14.05Zm1.45-28.65-1.17 27.8 17.93-16.55Z" transform="translate(-44.43 -48.52)"/><path class="cls-5" d="M465.14 501.09h-.11a.25.25 0 0 1-.14-.21l-1.79-31.19a.25.25 0 0 1 .41-.21l21.14 17.74a.25.25 0 0 1 .09.2.25.25 0 0 1-.11.19L465.29 501a.25.25 0 0 1-.15.09Zm-1.51-30.87 1.73 30.16 18.72-13Z" transform="translate(-44.43 -48.52)"/><path class="cls-5" d="M442.75 493.87h-.08a.25.25 0 0 1-.17-.23L440.69 447a.25.25 0 0 1 .15-.24.25.25 0 0 1 .28.05l22.41 22.67a.25.25 0 0 1 0 .34l-20.6 24a.25.25 0 0 1-.18.05Zm-1.53-46.25L443 493l20-23.31Z" transform="translate(-44.43 -48.52)"/><path class="cls-5" d="M447.92 523.07a.25.25 0 0 1-.15 0l-29.87-22.25a.25.25 0 0 1 .08-.44l24.69-7a.24.24 0 0 1 .2 0 .25.25 0 0 1 .11.17l5.17 29.2a.25.25 0 0 1-.25.29Zm-29.31-22.39 29 21.57-5-28.31Zm-4.38-51.85a.25.25 0 0 1-.2-.4l24.84-34a.25.25 0 0 1 .45.13l1.87 32.44a.25.25 0 0 1-.24.26l-26.71 1.6Zm24.63-33.52-24.11 33 25.93-1.55Z" transform="translate(-44.43 -48.52)"/><path class="cls-5" d="M404.32 481.1a.26.26 0 0 1-.16-.06l-26.52-23a.25.25 0 0 1 .1-.43l36.43-9.3a.26.26 0 0 1 .24.07.25.25 0 0 1 .06.25l-9.91 32.27a.25.25 0 0 1-.17.17Zm-26-23.1 25.87 22.41 9.67-31.48Zm113.62 68.07-44-3a.25.25 0 0 1-.21-.15.25.25 0 0 1 0-.26l17.22-22a.25.25 0 0 1 .18-.09.24.24 0 0 1 .19.07l26.8 25a.25.25 0 0 1-.17.43Zm-43.53-3.47 42.85 2.93-26.08-24.32Z" transform="translate(-44.43 -48.52)"/><path class="cls-5" d="m475.14 549.94-43.29-.27a.25.25 0 0 1-.21-.38l16.07-26.6a.25.25 0 0 1 .18-.12.26.26 0 0 1 .21.07l27.22 26.87a.25.25 0 0 1-.18.43Zm-42.85-.76 42.24.26L448 523.22Zm-118.88-4.59h-.1a.25.25 0 0 1-.15-.18l-5.27-27.45a.25.25 0 0 1 .34-.28l29.31 11.92a.25.25 0 0 1 0 .44l-24 15.54a.25.25 0 0 1-.13.01Zm-4.93-27.3 5.11 26.64 23.33-15.07Z" transform="translate(-44.43 -48.52)"/><path class="cls-5" d="M342.49 561.31a.25.25 0 0 1-.12 0l-29.08-16.73a.25.25 0 0 1 0-.43l24-15.54a.25.25 0 0 1 .38.17l5 32.26a.25.25 0 0 1-.25.29Zm-28.6-17 28.27 16.26-4.89-31.37Z" transform="translate(-44.43 -48.52)"/><path class="cls-5" d="M337.46 529.05a.25.25 0 0 1-.25-.25l-.21-39.88a.25.25 0 0 1 .39-.21L377 515.82a.25.25 0 0 1-.06.44L337.53 529Zm.09-39.65.16 39.06 38.6-12.51Zm134.23-166.09h-.11a.25.25 0 0 1-.14-.17l-3.7-15.06a.25.25 0 0 1 .06-.23.23.23 0 0 1 .22-.08l27.64 3.43a.25.25 0 0 1 .08.47l-23.95 11.63Zm-3.37-15 3.54 14.41 22.91-11.12Z" transform="translate(-44.43 -48.52)"/><path class="cls-5" d="M495.73 311.69a.25.25 0 0 1-.18-.14l-5.7-12.46a.25.25 0 0 1 .16-.35l27.77-7.57a.25.25 0 0 1 .23.43l-22.07 20a.25.25 0 0 1-.21.09Zm-5.35-12.55 5.43 11.86 21-19.1ZM517 291a.25.25 0 0 1-.15 0l-14.11-10.1a.25.25 0 0 1 0-.42l26.73-15.61a.25.25 0 0 1 .35.33l-12.62 25.69a.25.25 0 0 1-.16.13Zm-13.66-10.33 13.56 9.7 12.1-24.66Zm26.4-16.38a.25.25 0 0 1-.22-.13l-7.94-14.58a.25.25 0 0 1 0-.24l16.81-32.12a.25.25 0 0 1 .47.16L530 264.09a.25.25 0 0 1-.21.2Zm-7.66-14.84 7.55 13.85 8.42-44.3Z" transform="translate(-44.43 -48.52)"/><path class="cls-5" d="M468.08 308.25a.25.25 0 0 1-.22-.37l11.71-21.78a.25.25 0 0 1 .2-.13.27.27 0 0 1 .22.09l10.23 12.75a.25.25 0 0 1 0 .22.25.25 0 0 1-.15.17l-21.94 9Zm11.75-21.58-11.2 20.83 21-8.64Z" transform="translate(-44.43 -48.52)"/><path class="cls-5" d="M458.48 308.36a.25.25 0 0 1-.24-.32l4-14.62a.25.25 0 0 1 .23-.18.25.25 0 0 1 .25.16l5.6 14.51a.25.25 0 0 1-.23.34l-9.61.11Zm4-14.07-3.71 13.57 8.91-.1Zm27.52 4.94a.25.25 0 0 1-.2-.09l-10.2-12.75a.25.25 0 0 1 .14-.4l23-5a.25.25 0 0 1 .26.11.25.25 0 0 1 0 .28l-12.75 17.78a.25.25 0 0 1-.2.1Zm-9.79-12.84 9.79 12.17 12.18-17Zm-156.09-52.05a.25.25 0 0 1-.22-.12l-16.15-27.67a.25.25 0 0 1 .13-.36l32.8-11.76a.25.25 0 0 1 .31.33l-16.65 39.43a.25.25 0 0 1-.21.15Zm-15.78-27.79 15.75 27 16.24-38.44Zm123.06 152.5a.25.25 0 0 1-.12 0 .25.25 0 0 1-.12-.29l6.74-24.61a.25.25 0 0 1 .23-.18.24.24 0 0 1 .24.17l4.45 12.52a.25.25 0 0 1-.05.25L431.59 359a.25.25 0 0 1-.19.05Zm6.77-24-6.26 22.85 10.39-11.22Zm-22.38 56.49h-.1a.25.25 0 0 1-.15-.27l1.7-11.44a.25.25 0 0 1 .12-.18l11.8-6.78a.25.25 0 0 1 .31.05.25.25 0 0 1 0 .31L416 391.44a.25.25 0 0 1-.21.1Zm1.93-11.54-1.53 10.34 12.19-16.46Zm-144.19-54.5a.25.25 0 0 1-.21-.15l-15.39-36.1a.25.25 0 0 1 0-.22.25.25 0 0 1 .18-.13l45.48-8a.25.25 0 0 1 .25.39l-30.09 44.1a.25.25 0 0 1-.22.11Zm-15-36.16 15.09 35.4 29.5-43.23ZM79.75 383.43a.25.25 0 0 1-.24-.18L69.09 349.5a.25.25 0 0 1 .46-.19l9.15 18.4a.25.25 0 0 1 0 .09l1.3 15.36a.25.25 0 0 1-.2.27Zm-9.27-31.13 8.83 28.61-1.08-13Z" transform="translate(-44.43 -48.52)"/><path class="cls-5" d="M69.33 349.68a.25.25 0 0 1-.24-.19l-8-33.42a.25.25 0 0 1 .46-.17l10 19a.26.26 0 0 1 0 .15l-2 14.41a.25.25 0 0 1-.24.21ZM62 317.89l7.25 30.2 1.82-13Z" transform="translate(-44.43 -48.52)"/><path class="cls-5" d="M61.31 316.26a.25.25 0 0 1-.25-.22l-4.12-29.88a.25.25 0 0 1 .47-.15L64 298.49a.25.25 0 0 1 0 .15L61.56 316a.25.25 0 0 1-.25.26Zm-3.68-28.75 3.68 26.68 2.17-15.54Z" transform="translate(-44.43 -48.52)"/><path class="cls-5" d="M57.19 286.38a.25.25 0 0 1-.21-.26L58 264.23a.25.25 0 0 1 .22-.24.24.24 0 0 1 .27.18l2.62 9.19a.26.26 0 0 1 0 .14l-3.72 12.7a.25.25 0 0 1-.2.18Zm1.28-20.62L57.55 284l3.11-10.6Zm133.27 171.15a.25.25 0 0 1-.24-.33l16.43-48.67a.25.25 0 0 1 .42-.09l18.78 19.35a.25.25 0 0 1 .07.19.25.25 0 0 1-.09.18l-35.21 29.31a.25.25 0 0 1-.16.06Zm16.53-48.45-16 47.45 34.32-28.59Zm26.58-13.97a.25.25 0 0 1-.18-.07l-24.4-24.78a.25.25 0 0 1 .11-.42l29.13-8a.25.25 0 0 1 .31.28l-4.72 32.8a.25.25 0 0 1-.17.2Zm-23.93-24.91 23.75 24.12 4.6-31.92ZM378.8 271a.25.25 0 0 1-.24-.2l-8.33-38.87a.25.25 0 0 1 .38-.26l41.49 25.77a.25.25 0 0 1 0 .44L378.89 271Zm-8-38.6 8.15 38 32.42-12.81Z" transform="translate(-44.43 -48.52)"/><path class="cls-5" d="M370.46 232.13a.25.25 0 0 1-.2-.09l-29.69-37.22a.25.25 0 0 1 .2-.41h39.05a.25.25 0 0 1 .24.31l-9.36 37.21a.25.25 0 0 1-.19.18Zm-29.17-37.22 29.05 36.41 9.16-36.41Z" transform="translate(-44.43 -48.52)"/><path class="cls-5" d="M340.77 194.91a.25.25 0 0 1-.21-.16l-10.38-27.53a.25.25 0 0 1 0-.24.27.27 0 0 1 .23-.09l27 3.12a.25.25 0 0 1 .18.39L341 194.8a.25.25 0 0 1-.23.11Zm-10-27.48 10.07 26.7 16.11-23.67ZM136 302.95a.25.25 0 0 1-.14-.46l8.31-5.57a.24.24 0 0 1 .17 0l7.4.93a.25.25 0 0 1 0 .49l-15.72 4.63Zm8.38-5.56-6.85 4.61 13-3.83Z" transform="translate(-44.43 -48.52)"/><path class="cls-5" d="m151.75 298.31-7.4-.93a.25.25 0 0 1-.12-.45l13.93-10.23a.25.25 0 0 1 .36.33L152 298.19a.25.25 0 0 1-.25.12ZM145 297l6.62.83 5.84-10Z" transform="translate(-44.43 -48.52)"/><path class="cls-5" d="M158.28 287.15a.25.25 0 0 1-.14 0l-5.71-3.77a.25.25 0 0 1-.1-.3l4-10.46a.24.24 0 0 1 .26-.16.25.25 0 0 1 .22.22l1.69 14.24a.25.25 0 0 1-.12.24.25.25 0 0 1-.1-.01Zm-5.4-4.12 5.12 3.37-1.51-12.7Z" transform="translate(-44.43 -48.52)"/><path class="cls-5" d="M156.59 272.91a.25.25 0 0 1-.15 0l-6.72-4.92a.25.25 0 0 1-.1-.24l1.18-8.35a.25.25 0 0 1 .48-.06l5.54 13.27a.25.25 0 0 1-.23.35Zm-6.45-5.28 5.88 4.3-4.84-11.6Zm-49.69 24.21a.25.25 0 0 1-.16-.44l6.7-5.76a.25.25 0 0 1 .22-.05.25.25 0 0 1 .17.15l1 2.41a.25.25 0 0 1-.13.33l-7.71 3.35Zm6.6-5.6-5.19 4.46 6-2.59Z" transform="translate(-44.43 -48.52)"/><path class="cls-5" d="M114.92 287.69h-.05l-7.76-1.61a.25.25 0 0 1 0-.48l10.58-3.12a.25.25 0 0 1 .29.37l-2.82 4.73a.25.25 0 0 1-.24.11Zm-6.73-1.9 6.61 1.37 2.4-4Z" transform="translate(-44.43 -48.52)"/><path class="cls-5" d="M114.92 287.69a.25.25 0 0 1-.21-.38l2.82-4.73a.25.25 0 0 1 .25-.12l11.19 1.4a.25.25 0 0 1 0 .49l-14 3.33Zm2.95-4.71-2.43 4.08 12.09-2.87Z" transform="translate(-44.43 -48.52)"/><path class="cls-5" d="m135.44 290.27-11-1.38a.25.25 0 0 1-.15-.42l4.46-4.53a.25.25 0 0 1 .35 0l6.52 5.91a.25.25 0 0 1-.17.44ZM125 288.46l9.69 1.22-5.75-5.22Zm-33.49 11.22-5.17-.68a.25.25 0 0 1-.13-.06l-7.88-6.66a.25.25 0 0 1 .28-.41l13 7.31a.25.25 0 0 1-.12.47Zm-5-1.14 3.79.48-9.61-5.4Z" transform="translate(-44.43 -48.52)"/><path class="cls-5" d="M74.53 293.89a.25.25 0 0 1-.24-.19l-2.36-9.93a.25.25 0 0 1 .44-.21L78.7 292a.25.25 0 0 1-.11.38l-4 1.53Zm-1.84-9.07 2 8.48 3.41-1.3Z" transform="translate(-44.43 -48.52)"/><path class="cls-5" d="M83.82 304.45a.25.25 0 0 1-.19-.08l-9.28-10.56a.25.25 0 0 1 .1-.4l4-1.53a.25.25 0 0 1 .32.13L84 304.1a.25.25 0 0 1-.23.35ZM75 293.75l8 9.07-4.57-10.38ZM72.18 284h-.05a.25.25 0 0 1-.19-.19L68 266.17a.25.25 0 0 1 .45-.2L77 277.43a.25.25 0 0 1 0 .3l-4.61 6.14a.25.25 0 0 1-.21.13Zm-3.4-16.75 3.52 15.92 4.17-5.55Z" transform="translate(-44.43 -48.52)"/><path class="cls-5" d="M68.28 266.37a.25.25 0 0 1-.15 0A.25.25 0 0 1 68 266l4.66-13.49a.25.25 0 0 1 .24-.17.25.25 0 0 1 .23.18l2.48 7.92a.25.25 0 0 1-.08.27l-7.13 5.58a.25.25 0 0 1-.12.08Zm4.64-12.94-4.13 12 6.33-5Z" transform="translate(-44.43 -48.52)"/><path class="cls-5" d="M72.94 252.88a.25.25 0 0 1-.21-.39l9.2-13.33a.25.25 0 0 1 .45.18l-1.29 9.23a.25.25 0 0 1-.13.19l-7.91 4.1Zm8.81-12.57-8 11.64 6.91-3.58Z" transform="translate(-44.43 -48.52)"/><path class="cls-5" d="M82.14 239.54a.25.25 0 0 1-.23-.35l7.76-16.92a.25.25 0 0 1 .48.09l.37 9a.25.25 0 0 1-.08.19l-8.13 7.94a.25.25 0 0 1-.17.05Zm7.55-16.12-6.76 14.75 7.07-6.92Zm.56 85.23a.25.25 0 0 1-.14 0l-6.43-4.2a.25.25 0 0 1 0-.44l3.76-1.8a.25.25 0 0 1 .19 0 .25.25 0 0 1 .14.13l2.67 6a.25.25 0 0 1-.23.35Zm-5.92-4.42 5.35 3.49-2.22-5Zm22.78-8.23a.25.25 0 0 1-.13 0l-6.66-4.14a.25.25 0 0 1 0-.44l7.71-3.35a.25.25 0 0 1 .35.26l-1.05 7.49a.25.25 0 0 1-.14.19Zm-6.11-4.37 5.93 3.69.94-6.67Zm26.46 3.11h-.07a.25.25 0 0 1-.15-.13l-3-5.85a.25.25 0 0 1 0-.26.24.24 0 0 1 .24-.1l11 1.38a.25.25 0 0 1 .09.47l-8 4.47a.25.25 0 0 1-.11.02Zm-2.55-5.79 2.66 5.19 7.09-4Z" transform="translate(-44.43 -48.52)"/><path class="cls-5" d="M89.9 222.62a.25.25 0 0 1-.22-.36l6.7-13.43a.25.25 0 0 1 .47.13L96 219.12a.25.25 0 0 1-.13.2L90 222.59a.25.25 0 0 1-.1.03Zm6.35-12.4-5.76 11.54 5-2.81Z" transform="translate(-44.43 -48.52)"/><path class="cls-5" d="M96.6 209.19h-.08a.25.25 0 0 1-.17-.27l2-14.35a.25.25 0 0 1 .19-.21.25.25 0 0 1 .26.11l3.37 5.15a.25.25 0 0 1 0 .26l-5.38 9.19a.25.25 0 0 1-.19.12Zm2.17-13.9L97 207.73l4.66-8Z" transform="translate(-44.43 -48.52)"/><path class="cls-5" d="M98.61 194.85a.25.25 0 0 1-.2-.25l.43-18.6a.25.25 0 0 1 .22-.24.25.25 0 0 1 .27.18l2.82 9.67a.25.25 0 0 1 0 .16l-3.3 8.94a.25.25 0 0 1-.24.14Zm.69-17.25-.4 15.5 2.75-7.45Z" transform="translate(-44.43 -48.52)"/><path class="cls-5" d="M99.09 176.24a.25.25 0 0 1-.2-.1l-8.65-11.2a.25.25 0 0 1 0-.28.26.26 0 0 1 .25-.13l9 1.06a.25.25 0 0 1 .22.26L99.34 176a.25.25 0 0 1-.17.23ZM91 165.1l7.86 10.18.33-9.22Z" transform="translate(-44.43 -48.52)"/><path class="cls-5" d="m99.45 166.09-9-1.06a.25.25 0 0 1-.18-.38l7.53-11.74a.25.25 0 0 1 .46.11l1.48 12.79a.25.25 0 0 1-.25.28Zm-8.58-1.51 8.3 1-1.36-11.78Zm61.7 118.8a.25.25 0 0 1-.17-.06l-8.5-7.56a.25.25 0 0 1 0-.34l5.8-7.82a.25.25 0 0 1 .26-.09.25.25 0 0 1 .19.2l2.7 15.38a.25.25 0 0 1-.12.26.25.25 0 0 1-.16.03Zm-8.17-7.85 7.8 6.93-2.48-14.1Z" transform="translate(-44.43 -48.52)"/><path class="cls-5" d="M144.35 297.38a.25.25 0 0 1-.21-.19l-2.09-8.8a.25.25 0 0 1 .13-.28l10.31-5.21a.25.25 0 0 1 .33.35l-8.22 14a.25.25 0 0 1-.25.13Zm-1.8-8.91 1.9 8 7.48-12.73Zm-65.77-10.64h-.1a.25.25 0 0 1-.15-.21l-1.37-17a.25.25 0 0 1 .38-.23l12.78 8.06a.25.25 0 0 1 .12.2.25.25 0 0 1-.1.21l-11.41 9a.25.25 0 0 1-.15-.03ZM75.71 261 77 277.09l10.77-8.47Zm23.5 39.7-7.7-1a.25.25 0 0 1-.21-.28l.78-5.57a.25.25 0 0 1 .17-.2.25.25 0 0 1 .25.05l6.92 6.59a.25.25 0 0 1-.17.43Zm-7.42-1.48 6.69.89-6-5.72Zm52.28-23.4H144l-13.36-4.08a.25.25 0 0 1 0-.46l8-4.36a.25.25 0 0 1 .33.08l5.39 8.44a.25.25 0 0 1-.21.38Zm-12.72-4.4 12.14 3.71-4.9-7.67Zm-7.75 140.81a.25.25 0 0 1-.24-.33l3.49-10.9a.25.25 0 0 1 .13-.15.26.26 0 0 1 .2 0l14.62 5.67a.25.25 0 0 1 0 .47l-18.12 5.27Zm3.65-10.86L124 411.61l17-4.93Z" transform="translate(-44.43 -48.52)"/><path class="cls-5" d="m123.6 412.23-15-2a.25.25 0 0 1-.19-.36l3.92-8.08a.25.25 0 0 1 .18-.14.24.24 0 0 1 .21.06l11.11 10.13a.25.25 0 0 1-.17.43Zm-14.65-2.5 13.89 1.89-10.27-9.36Zm62.25 54.52a.25.25 0 0 1-.2-.15l-12.7-29.18a.25.25 0 0 1 0-.24.26.26 0 0 1 .22-.11l33.21 1.83a.25.25 0 0 1 .19.4l-20.52 27.35a.25.25 0 0 1-.2.1Zm-12.28-29.15 12.34 28.41 20-26.62Zm-51.71 17.8h-.07a.25.25 0 0 1-.17-.17l-5.9-20.79a.25.25 0 0 1 .38-.28l16.6 11.12a.25.25 0 0 1 0 .39l-10.7 9.67a.25.25 0 0 1-.14.06Zm-5.47-20.46 5.6 19.75 10.17-9.19Zm-30.39-97.17a.25.25 0 0 1-.22-.13l-10-19a.25.25 0 0 1 0-.26.24.24 0 0 1 .24-.11l15.2 1.95a.25.25 0 0 1 .21.32l-5.16 17.06a.25.25 0 0 1-.21.18Zm-9.59-18.95 9.53 18 4.9-16.19Z" transform="translate(-44.43 -48.52)"/><path class="cls-5" d="M76.51 318.21a.25.25 0 0 1-.21-.11l-12.76-19.36a.25.25 0 0 1 0-.3.25.25 0 0 1 .29-.07l12 5.11a.25.25 0 0 1 .15.22l.78 14.24a.25.25 0 0 1-.17.25Zm-12.1-19 11.8 17.89-.72-13.16Zm14.07 68.87a.25.25 0 0 1-.24-.2l-7.14-32.81a.25.25 0 0 1 .36-.28l9 4.46a.25.25 0 0 1 .14.24l-1.86 28.36a.25.25 0 0 1-.23.23Zm-6.78-32.61L78.35 366l1.73-26.42Z" transform="translate(-44.43 -48.52)"/><path class="cls-5" d="M80.34 339.72h-.07a.25.25 0 0 1-.18-.22l-1.67-18.64a.25.25 0 0 1 .12-.23.25.25 0 0 1 .26 0L89.69 327a.25.25 0 0 1 .07.37l-9.22 12.24a.25.25 0 0 1-.2.11ZM79 321.3l1.56 17.51 8.66-11.49Zm-20.71-56.81a.25.25 0 0 1-.24-.31l4.46-17.94a.25.25 0 0 1 .24-.19.25.25 0 0 1 .24.18l2.81 9.6a.25.25 0 0 1-.05.23l-7.27 8.35a.25.25 0 0 1-.19.08Zm4.48-17.24-4 16 6.5-7.46Z" transform="translate(-44.43 -48.52)"/><path class="cls-5" d="M62.75 246.55h-.11a.25.25 0 0 1-.13-.28l3-13.83a.25.25 0 0 1 .44-.1l4.34 5.35a.25.25 0 0 1 0 .32l-7.37 8.48a.25.25 0 0 1-.17.06ZM65.91 233l-2.71 12.36 6.59-7.58Z" transform="translate(-44.43 -48.52)"/><path class="cls-5" d="M65.78 232.72h-.12a.25.25 0 0 1-.13-.25l1.2-9.49a.25.25 0 0 1 .21-.21l11.36-2a.26.26 0 0 1 .27.14.25.25 0 0 1-.06.29l-12.56 11.5a.25.25 0 0 1-.17.02Zm1.43-9.53-1.09 8.63 11.43-10.46Zm119.01-33.26-9-1.07a.25.25 0 0 1 0-.49l14-4.15a.25.25 0 0 1 .25.41l-5 5.22a.25.25 0 0 1-.25.08Zm-7.8-1.42 7.71.91 4.24-4.45Z" transform="translate(-44.43 -48.52)"/><path class="cls-5" d="M201.39 188.82h-.09l-10.2-4.11a.25.25 0 0 1 .08-.48l14.34-1a.24.24 0 0 1 .24.13.25.25 0 0 1 0 .27l-4.14 5.16a.25.25 0 0 1-.23.03Zm-9.11-4.19 9 3.64 3.72-4.57Z" transform="translate(-44.43 -48.52)"/><path class="cls-5" d="M201.39 188.82a.25.25 0 0 1-.2-.41l4.14-5.16a.25.25 0 0 1 .16-.09l19.29-2.87a.24.24 0 0 1 .28.19.25.25 0 0 1-.16.3l-23.43 8Zm4.27-5.17-3.54 4.41 20-6.86Z" transform="translate(-44.43 -48.52)"/><path class="cls-5" d="m232.94 182.26-8.12-1.47a.25.25 0 0 1 0-.48l17.71-7.19a.25.25 0 0 1 .26.42l-9.58 8.65a.25.25 0 0 1-.27.07Zm-7.23-1.81 7.15 1.29 8.44-7.62Z" transform="translate(-44.43 -48.52)"/><path class="cls-5" d="M242.53 173.61a.25.25 0 0 1-.14-.45l12.27-8.62a.25.25 0 0 1 .39.24l-1.05 7.51a.25.25 0 0 1-.22.21l-11.19 1.1Zm11.94-8.33-11 7.74 10-1Zm-78.04 12.57a.25.25 0 0 1-.24-.33l4.81-14.46a.25.25 0 0 1 .49.06l.68 8.79a.25.25 0 0 1-.07.19l-5.49 5.67a.25.25 0 0 1-.18.08Zm4.66-13.46L177 176.64l4.65-4.81Z" transform="translate(-44.43 -48.52)"/><path class="cls-5" d="M181.24 163.38a.25.25 0 0 1-.24-.38l6.24-10.9a.29.29 0 0 1 .23-.13.25.25 0 0 1 .22.14l3 6.16a.25.25 0 0 1-.11.33l-9.23 4.74a.24.24 0 0 1-.11.04Zm6.22-10.61-5.58 9.76 8.26-4.24Z" transform="translate(-44.43 -48.52)"/><path class="cls-5" d="M190.47 158.65h-.06a.25.25 0 0 1-.16-.13l-3-6.16a.25.25 0 0 1 .16-.35l18.59-4.72a.25.25 0 0 1 .21.45l-15.6 10.86a.25.25 0 0 1-.14.05Zm-2.63-6.24 2.73 5.62 14.19-9.91Z" transform="translate(-44.43 -48.52)"/><path class="cls-5" d="M221.05 156.37a.25.25 0 0 1-.12 0l-15-8.59a.25.25 0 0 1-.11-.31.24.24 0 0 1 .29-.15l27.21 6.22a.25.25 0 0 1 0 .49l-12.18 2.37Zm-13.44-8.22 13.48 7.7 10.91-2.12Z" transform="translate(-44.43 -48.52)"/><path class="cls-5" d="M244.13 160.75a.25.25 0 0 1-.13 0L233.1 154a.25.25 0 0 1 .16-.46l18.57 2.46a.25.25 0 0 1 .09.47l-7.67 4.27a.24.24 0 0 1-.12.01Zm-9.77-6.6 9.78 6.06 6.88-3.83Z" transform="translate(-44.43 -48.52)"/><path class="cls-5" d="M244.13 160.75a.25.25 0 0 1-.12-.47l7.67-4.27a.24.24 0 0 1 .15 0l18.71 1.81a.25.25 0 0 1 0 .5l-26.37 2.45Zm7.72-4.26-6.56 3.65 22.57-2.1Zm-55.58 18.9a.25.25 0 0 1-.14-.45c.71-.49.24-6.49-.62-12a.25.25 0 0 1 .4-.24l9.53 7.2a.25.25 0 0 1 0 .42l-9 5a.25.25 0 0 1-.17.07Zm-.18-11.92c.36 2.41 1.22 8.77.71 11.09l8-4.49Z" transform="translate(-44.43 -48.52)"/><path class="cls-5" d="M203.75 181.06a.25.25 0 0 1-.15-.05l-7.48-5.67a.25.25 0 0 1 0-.42l9-5a.25.25 0 0 1 .37.25L204 180.85a.25.25 0 0 1-.15.2Zm-7-5.88 6.84 5.18 1.4-9.79Z" transform="translate(-44.43 -48.52)"/><path class="cls-5" d="M203.75 181.06a.25.25 0 0 1-.25-.29l1.5-10.7a.25.25 0 0 1 .4-.16l13.27 10.22a.25.25 0 0 1-.14.45l-14.79.49Zm1.71-10.5-1.42 10 13.8-.46Z" transform="translate(-44.43 -48.52)"/><path class="cls-5" d="M218.54 180.57h-.06a.25.25 0 0 1-.19-.22l-.83-8.77a.25.25 0 0 1 .16-.26l8.21-3.22a.25.25 0 0 1 .28.07.25.25 0 0 1 0 .29l-7.38 12a.25.25 0 0 1-.19.11Zm-.56-8.85.74 7.84 6.6-10.71Z" transform="translate(-44.43 -48.52)"/><path class="cls-5" d="M225.93 168.59a.25.25 0 0 1-.17-.07l-6.81-6.62a.25.25 0 0 1 .08-.41l8.21-3.16a.25.25 0 0 1 .34.27l-1.4 9.78a.25.25 0 0 1-.17.2Zm-6.35-6.77 6.17 6 1.27-8.87Zm-23.83 1.33a.25.25 0 0 1-.22-.36l5.55-11.18a.25.25 0 0 1 .46 0l2.32 8.2a.25.25 0 0 1-.15.3l-7.87 3Zm5.48-10.74-5 10 7.06-2.67Z" transform="translate(-44.43 -48.52)"/><path class="cls-5" d="M203.62 160.17h-.11a.25.25 0 0 1-.13-.16l-2.32-8.2a.25.25 0 0 1 .23-.32l23.26-.92a.24.24 0 0 1 .25.19.25.25 0 0 1-.14.28l-20.94 9.13Zm-2-8.22 2.16 7.62 19.46-8.48Zm-4.73-7.27-8.16-.94a.25.25 0 0 1-.06-.48l17.33-6.92a.25.25 0 0 1 .31.1.25.25 0 0 1-.05.32l-9.26 7.86a.25.25 0 0 1-.11.06Zm-7.15-1.32 7.07.81 7.94-6.8Z" transform="translate(-44.43 -48.52)"/><path class="cls-5" d="M196.89 144.68a.25.25 0 0 1-.16-.44l9.17-7.85a.29.29 0 0 1 .17-.06l20.67.31a.25.25 0 0 1 .06.49l-29.84 7.55Zm9.26-7.85-8.29 7.1 27-6.82Z" transform="translate(-44.43 -48.52)"/><path class="cls-5" d="M238 147a.25.25 0 0 1-.16-.06l-11.26-9.87a.25.25 0 0 1-.06-.3.25.25 0 0 1 .28-.13l20.63 5.1a.25.25 0 0 1 .05.47l-9.37 4.79Zm-10.33-9.63 10.33 9.08 8.62-4.38Zm29.4 11.82a.25.25 0 0 1-.15-.05l-9-6.88a.25.25 0 0 1 .24-.43l15.6 5.57a.25.25 0 0 1 0 .48l-6.55 1.31Zm-7.61-6.35 7.67 5.83 5.56-1.11Zm-21.12 13.34a.25.25 0 0 1-.13 0l-12-7.21a.25.25 0 0 1-.11-.29.25.25 0 0 1 .26-.17l21 2.42a.25.25 0 0 1 .09.47l-9 4.79a.25.25 0 0 1-.11-.01Zm-10.84-7.08 10.85 6.54 8.19-4.35Z" transform="translate(-44.43 -48.52)"/><path class="cls-5" d="m251.79 156.48-23.45-.3a.25.25 0 0 1-.11-.47l9-4.79a.25.25 0 0 1 .2 0l14.43 5.1a.25.25 0 0 1-.08.49Zm-22.47-.79 21 .27-12.89-4.55Zm-22.99-1.54h-.08l-12-4.3a.25.25 0 0 1 .07-.49l22.05-.88a.25.25 0 0 1 .12.47l-10 5.18a.25.25 0 0 1-.16.02Zm-10.71-4.35 10.69 3.83 8.95-4.61Z" transform="translate(-44.43 -48.52)"/><path class="cls-5" d="M201.93 165.79a.25.25 0 0 1-.13 0l-11.46-7.15a.25.25 0 0 1 .06-.45l15.86-4.49a.25.25 0 0 1 .25.07.25.25 0 0 1 0 .26l-4.4 11.64a.25.25 0 0 1-.15.15Zm-10.85-7.31 10.72 6.69 4.12-10.89Zm26.64 13.33-12.44-1.45a.25.25 0 0 1-.16-.42l7.5-8.26a.24.24 0 0 1 .22-.08.25.25 0 0 1 .19.13l4.94 9.72a.25.25 0 0 1-.22.36Zm-11.93-1.89 11.49 1.34-4.56-9Zm13.33-7.92a.25.25 0 0 1-.14 0l-11.55-7.67a.25.25 0 0 1-.09-.3.25.25 0 0 1 .27-.16l16.73 2.45a.25.25 0 0 1 .14.42l-5.17 5.23a.25.25 0 0 1-.19.03Zm-10.49-7.52 10.45 6.94 4.68-4.73Z" transform="translate(-44.43 -48.52)"/><path class="cls-5" d="M212.78 162.09h-.05l-9.16-1.92a.25.25 0 0 1 0-.48l14.32-4.69a.25.25 0 0 1 .28.09.25.25 0 0 1 0 .3L213 162a.25.25 0 0 1-.22.09Zm-8.19-2.22 8.09 1.7 4.59-5.82Zm-3.2 28.95a.25.25 0 0 1-.08-.49l23.43-8a.25.25 0 0 1 .24.43l-8.25 6.91a.25.25 0 0 1-.14.06l-15.18 1.12Zm22.24-7.6-20.32 7 13.17-1Zm-72.91-38.68a.25.25 0 0 1-.23-.17l-4.4-13.22a.25.25 0 0 1 .11-.29l13-8.07a.25.25 0 0 1 .36.31L151 142.38a.25.25 0 0 1-.28.16Zm-4.1-13.36 4.12 12.39 8.07-20Z" transform="translate(-44.43 -48.52)"/><path class="cls-5" d="M150.75 142.73a.27.27 0 0 1-.18-.06c-.06 0-.2-.18-.08-.47l8.62-21.3a.25.25 0 0 1 .17-.15.25.25 0 0 1 .22.05l8.89 7.5a.25.25 0 0 1 0 .38s-4.24 3.67-8.48 7.19c-7.26 6.03-8.72 6.86-9.16 6.86Zm8.69-21.32-8.38 20.71c1.93-1 11-8.61 16.78-13.62Z" transform="translate(-44.43 -48.52)"/><path class="cls-5" d="M168.22 128.74a.25.25 0 0 1-.22-.37l4.87-9a.25.25 0 0 1 .34-.1l10.79 5.66a.25.25 0 0 1-.06.47l-15.65 3.35Zm5-8.93-4.5 8.32 14.43-3.13Z" transform="translate(-44.43 -48.52)"/><path class="cls-5" d="M183.88 125.4a.25.25 0 0 1-.25-.26l.32-11.6a.25.25 0 0 1 .09-.18.25.25 0 0 1 .19-.06l18.28 2.06a.25.25 0 0 1 .09.47l-18.6 9.54Zm.56-11.57-.3 10.9 17.49-9Z" transform="translate(-44.43 -48.52)"/><path class="cls-5" d="M202.48 115.86a.25.25 0 0 1-.21-.11.25.25 0 0 1 0-.28l5.83-8.25a.25.25 0 0 1 .27-.1l13.47 3.57a.25.25 0 0 1 0 .48l-19.3 4.68Zm5.93-8.22-5.34 7.57 17.69-4.3Z" transform="translate(-44.43 -48.52)"/><path class="cls-5" d="m246.43 111.89-24.65-.71a.25.25 0 0 1-.17-.43l6.66-6.46a.25.25 0 0 1 .27-.05l18 7.17a.25.25 0 0 1-.09.48Zm-24.05-1.19 22.65.65-16.53-6.59Z" transform="translate(-44.43 -48.52)"/><path class="cls-5" d="m269.8 116.58-23.37-4.69a.25.25 0 0 1 0-.48l11-3.92a.26.26 0 0 1 .23 0l12.33 8.61a.25.25 0 0 1-.14.45Zm-22.44-5 21.31 4.28-11.24-7.86Zm-74.26 8.15a.25.25 0 0 1-.19-.41l10.75-12.81a.25.25 0 0 1 .44.15l.35 6.88a.25.25 0 0 1-.13.23l-11.1 5.93a.26.26 0 0 1-.12.03Zm10.54-12.41-9.51 11.33 9.82-5.24Z" transform="translate(-44.43 -48.52)"/><path class="cls-5" d="M159.34 121.24a.25.25 0 0 1-.17-.43l10.67-10.07a.25.25 0 0 1 .41.1l3.09 8.55a.25.25 0 0 1-.21.33l-13.76 1.51Zm10.57-9.87-9.91 9.29 12.71-1.4Zm32.57 4.49-18.28-2.06a.25.25 0 0 1 0-.49l16-5a.25.25 0 0 1 .31.16l2.31 7.11a.25.25 0 0 1-.24.33Zm-17.08-2.43 16.73 1.89-2.13-6.51Z" transform="translate(-44.43 -48.52)"/><path class="cls-5" d="M148.06 121.67a.25.25 0 0 1-.13-.46l16.25-9.94a.25.25 0 0 1 .35.33l-5 9.51a.25.25 0 0 1-.21.13l-11.27.43Zm15.61-9.5-14.67 9 10.17-.38Zm36.5-3.42-16.32-1.83a.25.25 0 0 1-.06-.48l10.67-3.94a.25.25 0 0 1 .27.06l5.66 5.77a.25.25 0 0 1-.18.42Zm-15.25-2.22 14.58 1.64-5.05-5.17Z" transform="translate(-44.43 -48.52)"/><path class="cls-5" d="M200.17 108.75a.25.25 0 0 1-.18-.42l6.24-6.5a.25.25 0 0 1 .42.09l1.9 5.36a.25.25 0 0 1-.2.33l-8.14 1.14Zm6.14-6.28-5.46 5.68 7.12-1Z" transform="translate(-44.43 -48.52)"/><path class="cls-5" d="M221.78 111.18h-.06l-13.47-3.57a.25.25 0 0 1-.08-.45l10-6.77a.25.25 0 0 1 .38.13l3.45 10.33a.25.25 0 0 1-.24.33Zm-12.87-3.92 12.49 3.31-3.23-9.57Zm37.52 4.63h-.09l-18-7.17a.25.25 0 0 1 0-.48l14-2.56a.25.25 0 0 1 .28.15l4 9.73a.25.25 0 0 1-.23.35Zm-17.1-7.33 16.67 6.63-3.71-9ZM288 118.63l-18.22-2a.25.25 0 0 1-.13-.44l5.68-4.53a.25.25 0 0 1 .27 0l12.54 6.58a.25.25 0 0 1-.12.47Zm-17.59-2.48 16.3 1.83-11.21-5.88Z" transform="translate(-44.43 -48.52)"/><path class="cls-5" d="M228.43 104.72h-.09l-10.13-3.88a.25.25 0 0 1 .09-.48l10.71-.18a.2.2 0 0 1 .19.08.25.25 0 0 1 .06.2l-.58 4.06a.25.25 0 0 1-.25.21Zm-8.84-3.9 8.63 3.31.49-3.46ZM170 111.17a.25.25 0 0 1-.17-.44l8-7a.25.25 0 0 1 .27 0l5.89 2.71a.25.25 0 0 1 0 .47l-13.84 4.26Zm8-6.93-7 6.09 12.1-3.72ZM83.83 155.1h-.1L74 150.9a.25.25 0 0 1-.15-.22l-.22-7.79a.25.25 0 0 1 .44-.17l9.91 12a.25.25 0 0 1-.19.41Zm-9.45-4.6 8.62 3.71-8.78-10.62Z" transform="translate(-44.43 -48.52)"/><path class="cls-5" d="M90.45 165a.25.25 0 0 1-.21-.11L83.62 155a.25.25 0 0 1 .18-.39l14.14-1.8a.25.25 0 0 1 .24.38l-7.53 11.74c-.04.07-.14.07-.2.07Zm-6.18-10 6.18 9.28 7-11Zm-10.13-4.08a.25.25 0 0 1-.17-.06l-12.75-11.32a.25.25 0 0 1 .23-.43L74 142.63a.25.25 0 0 1 .18.23l.22 7.79a.25.25 0 0 1-.14.23Zm-11.78-11 11.51 10.18-.2-7Z" transform="translate(-44.43 -48.52)"/><path class="cls-5" d="M80.85 161.23h-.09L67.47 156a.25.25 0 0 1-.06-.43l6.59-5.1a.24.24 0 0 1 .2 0 .25.25 0 0 1 .17.11l6.71 10.31a.25.25 0 0 1-.21.39Zm-12.8-5.5 12.16 4.73-6.13-9.46Z" transform="translate(-44.43 -48.52)"/><path class="cls-5" d="M54.16 156.46a.25.25 0 0 1-.25-.28l1.09-7.75a.25.25 0 0 1 .38-.18l12.32 7.34a.25.25 0 0 1-.12.46l-13.4.41Zm1.27-7.59-1 7.08 12.25-.37Z" transform="translate(-44.43 -48.52)"/><path class="cls-5" d="M46.77 165.24a.25.25 0 0 1-.22-.36L55 148.35a.26.26 0 0 1 .3-.12.25.25 0 0 1 .17.27l-1.08 7.75a.25.25 0 0 1-.06.13L47 165.15a.25.25 0 0 1-.23.09Zm8-15.35L48 163.15l5.93-7Z" transform="translate(-44.43 -48.52)"/><path class="cls-5" d="M67.56 156.06a.25.25 0 0 1-.13 0l-12.32-7.34a.25.25 0 0 1-.12-.16.25.25 0 0 1 0-.19l6.15-9.11a.24.24 0 0 1 .24-.11.25.25 0 0 1 .21.16l6.17 16.45a.25.25 0 0 1-.23.34Zm-12-7.67 11.48 6.84-5.72-15.33Z" transform="translate(-44.43 -48.52)"/><path class="cls-5" d="M48.62 151.88a.25.25 0 0 1-.23-.36l4.4-9.43a.23.23 0 0 1 .24-.14.25.25 0 0 1 .22.17l2.22 6.27a.25.25 0 0 1-.13.31l-6.61 3.17Zm4.37-9-3.84 8.25 5.78-2.77Zm35.85 48.77a.25.25 0 0 1-.17-.07l-9-8.35a.25.25 0 0 1 .27-.41l17.19 7.3a.25.25 0 0 1-.07.48l-8.24 1.05Zm-7.75-7.82 7.83 7.31 7.21-.92Z" transform="translate(-44.43 -48.52)"/><path class="cls-5" d="M77.08 188.21H77l-9.08-2.69a.25.25 0 0 1 0-.49l11.88-2.23a.25.25 0 0 1 .25.1.25.25 0 0 1 0 .27l-2.81 4.92a.25.25 0 0 1-.16.12Zm-8-2.88 7.92 2.34 2.44-4.28Zm-.61 13.2a.25.25 0 0 1-.18-.07l-2.85-2.88a.25.25 0 0 1-.07-.21l1.43-10.24a.27.27 0 0 1 .25-.22.25.25 0 0 1 .24.22l1.43 13.12a.25.25 0 0 1-.14.25Zm-2.59-3.22 2.26 2.28-1.14-10.4Z" transform="translate(-44.43 -48.52)"/><path class="cls-5" d="M66.94 212.73a.25.25 0 0 1-.25-.23l-1.32-17.08a.25.25 0 0 1 .43-.19l2.85 2.88a.25.25 0 0 1 .07.2l-1.53 14.2a.25.25 0 0 1-.25.22Zm-1-16.67L67 209.77l1.23-11.4Zm3.59 24.09h-.11a.25.25 0 0 1-.14-.17l-1.63-7.3a.25.25 0 0 1 .07-.23.25.25 0 0 1 .24-.06l10.64 2.89a.25.25 0 0 1 0 .47l-9 4.41Zm-1.29-7.2 1.47 6.59 8.13-4Z" transform="translate(-44.43 -48.52)"/><path class="cls-5" d="M79.91 219.38h-.07a.25.25 0 0 1-.16-.15l-1.37-3.64a.25.25 0 0 1 0-.2.25.25 0 0 1 .15-.13l11.18-3.48a.25.25 0 0 1 .22.44l-9.81 7.11a.25.25 0 0 1-.14.05Zm-1-3.73 1.09 3.08 8.31-6Zm-11.68-33.86h-.09l-4.32-1.7a.25.25 0 0 1 0-.48l12.67-3.24 1.18-.52a.25.25 0 0 1 .22.45l-9.56 5.47a.25.25 0 0 1-.1.02Zm-3.51-1.9 3.49 1.37 7.16-4.1Z" transform="translate(-44.43 -48.52)"/><path class="cls-5" d="M86.61 180.78h-.1l-9.82-4.47a.25.25 0 0 1 .14-.47l13.88 2.32a.25.25 0 0 1 .08.47l-4.06 2.15a.25.25 0 0 1-.12 0Zm-8-4.16 8 3.63 3.3-1.75Z" transform="translate(-44.43 -48.52)"/><path class="cls-5" d="m97.22 182-10.61-1.26a.25.25 0 0 1-.09-.47l4.06-2.15a.25.25 0 0 1 .23 0l6.55 3.41a.25.25 0 0 1-.12.47Zm-9.79-1.66 8.46 1-5.22-2.71Zm3.77 26a.25.25 0 0 1-.24-.18L88.67 198a.25.25 0 0 1 0-.2l4.46-7.35a.25.25 0 0 1 .46.16l-2.17 15.51a.25.25 0 0 1-.23.21Zm-2-8.37 1.94 6.9L93 191.75Z" transform="translate(-44.43 -48.52)"/><path class="cls-5" d="M85.28 213.42h-.1a.25.25 0 0 1-.15-.26l1-6.83a.25.25 0 0 1 .24-.21l5-.25a.24.24 0 0 1 .24.14.25.25 0 0 1 0 .27l-5.92 7.08a.25.25 0 0 1-.31.06Zm1.18-6.84-.81 5.76 5-6Zm-7.99 7.55a.25.25 0 0 1-.16-.06l-5.57-4.91a.25.25 0 0 1-.05-.31.25.25 0 0 1 .29-.12l6 1.74a.25.25 0 0 1 .18.27l-.44 3.16a.25.25 0 0 1-.16.2Zm-4.57-4.6 4.38 3.86.35-2.49Z" transform="translate(-44.43 -48.52)"/><path class="cls-5" d="M72.9 209.22a.25.25 0 0 1-.22-.23l-1.08-12.83a.25.25 0 0 1 .4-.16l4 4.55a.25.25 0 0 1 0 .25l-2.94 8.28a.25.25 0 0 1-.16.14Zm-.76-12.35.92 10.92 2.51-7.05Z" transform="translate(-44.43 -48.52)"/><path class="cls-5" d="M71.83 196.39h-.1a.25.25 0 0 1-.14-.29l3-11.88a.25.25 0 0 1 .49 0l.7 6.2a.25.25 0 0 1 0 .16l-3.78 5.7a.25.25 0 0 1-.17.11Zm2.87-10.73-2.26 9.07 2.79-4.34ZM78.92 211h-.11a.25.25 0 0 1-.14-.19l-1.21-9.46a.25.25 0 0 1 .11-.24.25.25 0 0 1 .26 0l8.53 5.09a.25.25 0 0 1 0 .43l-7.36 4.3a.25.25 0 0 1-.08.07Zm-.9-9.23 1.1 8.57 6.63-4Z" transform="translate(-44.43 -48.52)"/><path class="cls-5" d="M77.71 201.5a.25.25 0 0 1-.23-.34l3.94-10.05a.25.25 0 0 1 .4-.09l7.26 6.74a.25.25 0 0 1-.1.42l-11.2 3.32Zm4-9.87-3.62 9.24 10.29-3Z" transform="translate(-44.43 -48.52)"/><path class="cls-5" d="M81.64 191.45a.25.25 0 0 1-.17-.1l-5.24-7.28a.25.25 0 0 1 0-.28.25.25 0 0 1 .25-.11l11.77 1.94a.25.25 0 0 1 .12.44l-6.53 5.35a.25.25 0 0 1-.2.04ZM77 184.26l4.73 6.58 5.86-4.84Zm-18.1-3.46a.25.25 0 0 1-.16-.05l-8.78-7a.25.25 0 0 1 .14-.45l8.34-.37a.26.26 0 0 1 .26.23l.44 7.33a.25.25 0 0 1-.13.24.25.25 0 0 1-.11.07Zm-8.1-7 7.82 6.2-.39-6.53Z" transform="translate(-44.43 -48.52)"/><path class="cls-5" d="M50.12 173.84a.25.25 0 0 1-.23-.16l-3.35-8.6a.25.25 0 0 1 .38-.3L58.6 173a.25.25 0 0 1-.13.45l-8.34.37Zm-2.82-8.17 3 7.66 7.43-.33Zm14.36 23.39h-.1a.25.25 0 0 1-.15-.27l1.25-9a.25.25 0 0 1 .34-.2l4.32 1.7a.25.25 0 0 1 .15.17.25.25 0 0 1 0 .22L61.85 189a.25.25 0 0 1-.19.06Zm1.45-8.87L62 187.91l4.79-6.26Z" transform="translate(-44.43 -48.52)"/><path class="cls-5" d="M61.75 197.73a.25.25 0 0 1-.22-.24l-.09-8.66a.25.25 0 0 1 .17-.24.25.25 0 0 1 .28.08l1.94 2.41a.25.25 0 0 1 0 .23L62 197.55a.25.25 0 0 1-.25.18Zm.16-8.19.07 6.28 1.34-4.53ZM67 223.23a.25.25 0 0 1-.18-.08l-3.7-3.83a.25.25 0 0 1 0-.29.23.23 0 0 1 .25-.14l4.16.5a.25.25 0 0 1 .17.1.25.25 0 0 1 0 .19l-.47 3.32a.25.25 0 0 1-.17.2Zm-3-3.75 2.85 3 .36-2.57Zm-19.32-67.24a.25.25 0 0 1-.23-.34l8.41-20.77a.25.25 0 0 1 .48.15l-4.46 20.41a.25.25 0 0 1-.22.2l-3.95.36ZM52.21 134l-7.15 17.7 3.36-.31Z" transform="translate(-44.43 -48.52)"/><path class="cls-5" d="M46.77 165.24a.25.25 0 0 1-.25-.21l-2.09-13a.25.25 0 0 1 .22-.29l3.95-.36a.24.24 0 0 1 .2.08.25.25 0 0 1 .07.21L47 165a.25.25 0 0 1-.25.22Zm-1.8-13 1.78 11.09 1.58-11.4Zm8.11-20.77H53a.25.25 0 0 1-.17-.27l3.82-27.46a.25.25 0 0 1 .24-.22.26.26 0 0 1 .25.2L60 118a.25.25 0 0 1 0 .16l-6.63 13.19a.25.25 0 0 1-.29.12Zm3.86-26.21-3.4 24.49L59.45 118Z" transform="translate(-44.43 -48.52)"/><path class="cls-5" d="M56.9 104h-.05a.25.25 0 0 1-.2-.26l1.72-24.06a.25.25 0 0 1 .23-.23.26.26 0 0 1 .26.18l3 11.19a.24.24 0 0 1 0 .15l-4.72 12.87a.25.25 0 0 1-.24.16Zm1.86-22.8L57.27 102l4.08-11.13Z" transform="translate(-44.43 -48.52)"/><path class="cls-5" d="M58.62 79.95h-.1a.25.25 0 0 1-.14-.27l5.92-30.92a.24.24 0 0 1 .26-.2.25.25 0 0 1 .23.23l1.56 21.6a.25.25 0 0 1-.05.17l-7.48 9.32a.25.25 0 0 1-.2.07Zm5.81-29.26L59 78.75l6.79-8.46Zm4.37 68.41-9.08-.81a.25.25 0 0 1-.21-.33l5.13-15.24a.25.25 0 0 1 .48 0l4 16.06a.25.25 0 0 1-.24.31Zm-8.75-1.28 8.42.75-3.66-14.88Z" transform="translate(-44.43 -48.52)"/><path class="cls-5" d="M61.62 91.14a.25.25 0 0 1-.24-.3l4.48-20.52a.25.25 0 0 1 .22-.2.25.25 0 0 1 .25.15l6.21 13.91a.25.25 0 0 1-.1.31L61.75 91.1a.25.25 0 0 1-.13.04Zm4.56-20L62 90.37l10-6.19Zm3.69 58.93h-.1a.25.25 0 0 1-.15-.2l-1.08-11a.25.25 0 0 1 .08-.2.25.25 0 0 1 .21-.07l13.45 1.76a.25.25 0 0 1 .12.45L70 130a.25.25 0 0 1-.13.07Zm-.8-10.94 1 10.22 11.53-8.59Z" transform="translate(-44.43 -48.52)"/><path class="cls-5" d="M75.75 104.27a.25.25 0 0 1-.21-.2l-3.48-19.75a.25.25 0 0 1 .17-.28l15.67-4.71a.25.25 0 0 1 .3.35L76 104.14a.25.25 0 0 1-.25.13Zm-3.16-19.81 3.28 18.78L87.5 80Z" transform="translate(-44.43 -48.52)"/><path class="cls-5" d="M96.66 99a.25.25 0 0 1-.23-.15l-8.68-19.18a.25.25 0 0 1 .11-.32l12.4-6.79a.25.25 0 0 1 .37.25l-3.71 26a.25.25 0 0 1-.21.21ZM88.3 79.68l8.24 18.18 3.52-24.61Z" transform="translate(-44.43 -48.52)"/><path class="cls-5" d="M96.66 99a.25.25 0 0 1-.25-.29l3.71-26a.25.25 0 0 1 .37-.18l18 10.17a.25.25 0 0 1 0 .42L96.81 98.94a.25.25 0 0 1-.15.06Zm3.91-25.81-3.57 25L117.91 83Z" transform="translate(-44.43 -48.52)"/><path class="cls-5" d="M100.37 73a.25.25 0 0 1-.16-.06L83.77 59.59a.25.25 0 0 1 .11-.44L110 53.5a.25.25 0 0 1 .28.36l-9.69 19a.25.25 0 0 1-.17.13ZM84.49 59.53l15.8 12.86 9.31-18.29Zm25.8 56.14-22.39-2.54a.25.25 0 0 1-.18-.38l8.76-14.14a.25.25 0 0 1 .2-.12.24.24 0 0 1 .21.09l13.62 16.68a.25.25 0 0 1-.19.41Zm-22-3 21.38 2.43-13-15.93Zm45.35-14.81a.25.25 0 0 1-.17-.07l-15.28-14.66a.25.25 0 0 1 0-.4L138.58 71a.25.25 0 0 1 .37.26l-5.07 26.39a.25.25 0 0 1-.17.19ZM118.78 83l14.7 14.11 4.88-25.41Zm-16.66 141.11a.25.25 0 0 1-.15 0l-6.37-4.81a.25.25 0 0 1-.07-.31l5-9.66a.26.26 0 0 1 .27-.13.25.25 0 0 1 .2.22l1.41 14.42a.25.25 0 0 1-.25.27Zm-6-5.08 5.74 4.29-1.27-13Z" transform="translate(-44.43 -48.52)"/><path class="cls-5" d="M90.27 231.61a.25.25 0 0 1-.23-.35L95.52 219a.25.25 0 0 1 .17-.14.25.25 0 0 1 .21 0l6.37 4.76a.25.25 0 0 1 0 .41l-11.84 7.5a.25.25 0 0 1-.16.08Zm5.58-12.12-5 11.21 10.84-6.86Zm-7.65 49.36a.25.25 0 0 1-.13 0l-12.78-8.06a.25.25 0 0 1 .07-.45l11.16-2.84a.25.25 0 0 1 .31.21l1.62 10.9a.25.25 0 0 1-.11.25.25.25 0 0 1-.14-.01ZM76 260.64l11.83 7.46-1.46-10.1Zm2.5 31.73h-.06a.25.25 0 0 1-.19-.21l-1.71-14.54a.25.25 0 0 1 .13-.25.25.25 0 0 1 .28 0l7.64 6a.25.25 0 0 1 0 .34l-5.92 8.51a.25.25 0 0 1-.17.15Zm-1.4-14.22 1.57 13.29 5.41-7.77Z" transform="translate(-44.43 -48.52)"/><path class="cls-5" d="M84.42 283.86a.25.25 0 0 1-.24-.31l3.78-15a.25.25 0 0 1 .21-.19.25.25 0 0 1 .25.13l6.07 11.17a.25.25 0 0 1-.13.35l-9.85 3.84Zm3.86-14.57-3.5 13.91 9.13-3.56Zm.13-24.41a.25.25 0 0 1-.16-.06L82 239.48a.25.25 0 0 1 0-.37l8.13-7.94a.25.25 0 0 1 .42.21l-1.86 13.28a.25.25 0 0 1-.16.2Zm-5.9-5.6 5.72 4.87 1.7-12.1ZM102 200h-.08a.25.25 0 0 1-.17-.24l-.07-14.09a.25.25 0 0 1 .14-.23.25.25 0 0 1 .26 0l6.77 5.43a.25.25 0 0 1 0 .35l-6.7 8.67a.25.25 0 0 1-.15.11Zm.18-13.82.06 12.84 6.11-7.9Z" transform="translate(-44.43 -48.52)"/><path class="cls-5" d="M96.49 239.12a.25.25 0 0 1-.19-.09l-6.22-7.52a.25.25 0 0 1 .06-.37l11.84-7.5a.25.25 0 0 1 .37.3l-5.62 15a.25.25 0 0 1-.19.16Zm-5.84-7.71 5.76 7 5.21-13.91Z" transform="translate(-44.43 -48.52)"/><path class="cls-5" d="M105.62 237.59a.25.25 0 0 1-.22-.19l-3.51-13.48a.25.25 0 0 1 .18-.3l10.39-2.73a.25.25 0 0 1 .29.34l-6.89 16.21a.25.25 0 0 1-.24.15Zm-3.2-13.59 3.26 12.53 6.4-15.07Zm42.28 38a.25.25 0 0 1-.25-.23l-.57-7.59a.25.25 0 0 1 .4-.22l6.92 5.23a.25.25 0 0 1-.06.43l-6.35 2.38Zm-.28-7.31.51 6.71 5.61-2.09Zm113.72 34.7a.25.25 0 0 1-.22-.15l-17.39-39.43a.25.25 0 0 1 0-.25.26.26 0 0 1 .23-.1l37.16 3.54a.25.25 0 0 1 .2.13.25.25 0 0 1 0 .24l-19.76 35.89a.25.25 0 0 1-.22.13Zm-17-39.39 17 38.58 19.33-35.11Z" transform="translate(-44.43 -48.52)"/><path class="cls-5" d="M277.9 253.51a.25.25 0 0 1-.17-.07l-27.34-25.86a.25.25 0 0 1 .07-.41l33.76-14.5a.25.25 0 0 1 .25 0 .25.25 0 0 1 .09.24l-6.42 40.36a.25.25 0 0 1-.17.2Zm-26.9-26 26.72 25.27 6.28-39.47Zm-40.55 122.2a.25.25 0 0 1-.25-.3l6.8-34.09a.25.25 0 0 1 .43-.11l22.35 26.07a.25.25 0 0 1-.12.4l-29.13 8Zm6.92-33.78-6.6 33.19 28.36-7.81Zm-25.63 120.98a.25.25 0 0 1-.18-.08l-22.29-24a.25.25 0 0 1 0-.38L208 387.77a.25.25 0 0 1 .29 0 .25.25 0 0 1 .08.28L192 436.74a.25.25 0 0 1-.18.16Zm-21.91-24.21 21.8 23.48 16.07-47.6Zm257.72-156.04a.25.25 0 0 1-.25-.27l3.39-43.25a.25.25 0 0 1 .18-.22.25.25 0 0 1 .27.1l18.22 26a.25.25 0 0 1 0 .34l-21.61 17.2a.25.25 0 0 1-.2.1Zm3.58-42.79-3.29 42 21-16.7ZM361 146h-.1a.25.25 0 0 1-.15-.2l-3.07-29.55a.25.25 0 0 1 .1-.23.25.25 0 0 1 .25 0l25.57 11.81a.25.25 0 0 1 0 .42l-22.5 17.74a.24.24 0 0 1-.1.01Zm-2.77-29.39 3 28.66L383 128.05Z" transform="translate(-44.43 -48.52)"/><path class="cls-5" d="M412 257.89a.25.25 0 0 1-.25-.27l2.41-26.78a.25.25 0 0 1 .47-.09l13.18 25.55a.25.25 0 0 1 0 .24.25.25 0 0 1-.2.13L412 257.89Zm2.58-26.15-2.31 25.63 14.92-1.18ZM210.45 349.71a.24.24 0 0 1-.13 0l-28.19-17.93a.25.25 0 0 1 0-.44l35-16.16a.25.25 0 0 1 .35.28l-6.78 34.09a.25.25 0 0 1-.15.18Zm-27.67-18.15 27.5 17.44 6.61-33.25ZM88.2 268.85a.25.25 0 0 1-.25-.21l-1.62-10.9a.25.25 0 0 1 .36-.26l13.72 7.06a.25.25 0 0 1 0 .46l-12.1 3.85Zm-1.3-10.71 1.5 10.13 11.25-3.58Zm18.72-20.55a.25.25 0 0 1-.23-.35l6.89-16.24a.25.25 0 0 1 .23-.15.29.29 0 0 1 .23.16l5 12.45a.25.25 0 0 1-.16.33l-11.84 3.76Zm6.88-15.8-6.44 15.15 11.06-3.52Z" transform="translate(-44.43 -48.52)"/><path class="cls-5" d="M217.22 315.62h-.07a.25.25 0 0 1-.17-.16l-11.06-32.06a.25.25 0 0 1 .06-.25.25.25 0 0 1 .25-.07l36.34 11.07a.25.25 0 0 1 .09.43l-25.28 21a.25.25 0 0 1-.16.04Zm-10.66-31.93 10.78 31.26L242 294.48ZM322 119a.25.25 0 0 1-.14-.46l30.69-20.7a.25.25 0 0 1 .38.14l5.25 18.15a.25.25 0 0 1 0 .21.25.25 0 0 1-.19.11L322 119Zm30.5-20.57-29.63 20 34.7-2.46Z" transform="translate(-44.43 -48.52)"/><path class="cls-5" d="M322 119a.25.25 0 0 1-.22-.17l-11.71-33.17a.25.25 0 0 1 .24-.33l28.89.06a.25.25 0 0 1 .22.37l-17.23 33.1a.25.25 0 0 1-.19.14Zm-11.3-33.16 11.3 32.27 16.78-32.22ZM99.88 386.72h-.11l-7.89-3.9a.25.25 0 0 1 0-.42l11.77-9.9a.25.25 0 0 1 .3 0 .25.25 0 0 1 .1.28l-3.89 13.81a.25.25 0 0 1-.14.16Zm-7.43-4.21 7.27 3.6 3.58-12.73Z" transform="translate(-44.43 -48.52)"/><path class="cls-5" d="M107.38 390.29h-.07a.25.25 0 0 1-.18-.19l-3.61-17.38a.25.25 0 0 1 .34-.28l14.14 6.11a.25.25 0 0 1 .08.4l-10.52 11.27a.25.25 0 0 1-.18.07Zm-3.27-17.21 3.41 16.43 9.95-10.65Z" transform="translate(-44.43 -48.52)"/><path class="cls-5" d="M131 386.63a.25.25 0 0 1-.12 0L117.77 379a.25.25 0 0 1 0-.41l12.06-9.47a.25.25 0 0 1 .26 0 .25.25 0 0 1 .15.21l1.09 17.07a.25.25 0 0 1-.12.23.25.25 0 0 1-.21 0Zm-12.71-7.88 12.43 7.18-1-16.13Z" transform="translate(-44.43 -48.52)"/><path class="cls-5" d="M143.38 384.29a.25.25 0 0 1-.18-.08l-13.42-14.74a.25.25 0 0 1 0-.28.24.24 0 0 1 .25-.14l28.76 2.74a.25.25 0 0 1 .13.45l-15.33 12a.25.25 0 0 1-.21.05Zm-12.8-14.68 12.83 14.09 14.66-11.47Z" transform="translate(-44.43 -48.52)"/><path class="cls-5" d="M117.9 379h-.1l-14.13-6.11a.25.25 0 0 1 .07-.48l26.19-3.36a.25.25 0 0 1 .26.15.25.25 0 0 1-.08.29L118.05 379a.25.25 0 0 1-.15 0Zm-13.19-6.23 13.16 5.69 11.23-8.82Z" transform="translate(-44.43 -48.52)"/></g></svg>